<svg width="91" height="81" viewBox="0 0 91 81" fill="none" xmlns="http://www.w3.org/2000/svg">
<g filter="url(#filter0_bii_26_79)">
<rect x="4.00705" y="0.999985" width="82" height="80" rx="40" fill="#2945FF"/>
</g>
<g filter="url(#filter1_i_26_79)">
<path d="M40.4309 15.1424C40.9972 14.1962 42.4964 14.0495 43.7795 14.8147C44.6466 15.3318 44.9344 16.5653 45.0299 17.3107C45.0772 17.68 44.8712 18.0241 44.5231 18.1575C43.8203 18.4268 42.5958 18.7583 41.7287 18.2412C40.4456 17.4759 39.8646 16.0886 40.4309 15.1424Z" fill="#EBE7DE"/>
</g>
<g filter="url(#filter2_i_26_79)">
<path d="M45.7203 12.6069C46.8202 12.7336 47.5738 14.0315 47.4034 15.506C47.288 16.5047 46.2736 17.2701 45.631 17.6601C45.3147 17.8521 44.9189 17.8065 44.6546 17.5476C44.1179 17.0219 43.3047 16.046 43.4202 15.0473C43.5906 13.5728 44.6204 12.4802 45.7203 12.6069Z" fill="#EBE7DE"/>
</g>
<g filter="url(#filter3_i_26_79)">
<path d="M50.2192 16.4742C50.5177 17.5354 49.5932 18.7226 48.1542 19.1259C47.1816 19.3985 46.0866 18.7585 45.4789 18.315C45.178 18.0953 45.0695 17.7095 45.2119 17.3656C45.4995 16.6712 46.1007 15.5557 47.0733 15.2831C48.5122 14.8797 49.9207 15.413 50.2192 16.4742Z" fill="#EBE7DE"/>
</g>
<g filter="url(#filter4_i_26_79)">
<path d="M47.9078 22.4754C46.97 23.0571 45.5702 22.5013 44.7814 21.234C44.2483 20.3775 44.5591 19.1496 44.8166 18.4434C44.9441 18.0937 45.2852 17.8821 45.6559 17.9229C46.4042 18.0052 47.6446 18.271 48.1777 19.1275C48.9665 20.3948 48.8457 21.8937 47.9078 22.4754Z" fill="#EBE7DE"/>
</g>
<g filter="url(#filter5_i_26_79)">
<path d="M43.3668 23.0427C42.3168 22.7018 41.8404 21.2752 42.3027 19.8564C42.6152 18.8974 43.7562 18.3432 44.463 18.0846C44.813 17.9566 45.1947 18.0805 45.4023 18.3896C45.8215 19.0137 46.4176 20.132 46.1051 21.091C45.6428 22.5098 44.4168 23.3837 43.3668 23.0427Z" fill="#EBE7DE"/>
</g>
<g filter="url(#filter6_i_26_79)">
<path d="M39.9552 19.6847C39.607 18.6388 40.4744 17.4094 41.8927 16.9387C42.8514 16.6207 43.9754 17.2085 44.6033 17.6229C44.9143 17.8281 45.0409 18.2084 44.9149 18.5586C44.6605 19.2658 44.1126 20.4084 43.1539 20.7264C41.7356 21.1971 40.3035 20.7307 39.9552 19.6847Z" fill="#EBE7DE"/>
</g>
<path d="M33.8582 28.2993V30.3208C32.8718 29.4956 31.8513 29.083 30.7966 29.083C29.6345 29.083 28.6555 29.5005 27.8596 30.3354C27.0589 31.1655 26.6585 32.1812 26.6585 33.3823C26.6585 34.5688 27.0589 35.5698 27.8596 36.3853C28.6604 37.2007 29.6419 37.6084 30.804 37.6084C31.4046 37.6084 31.9148 37.5107 32.3347 37.3154C32.5691 37.2178 32.8108 37.0859 33.0598 36.9199C33.3137 36.7539 33.5798 36.5537 33.8582 36.3193V38.3774C32.8816 38.9292 31.8562 39.2051 30.782 39.2051C29.1658 39.2051 27.7864 38.6411 26.6438 37.5132C25.5061 36.3755 24.9373 35.0034 24.9373 33.397C24.9373 31.9565 25.4133 30.6724 26.3655 29.5444C27.5374 28.1626 29.0535 27.4717 30.9138 27.4717C31.9295 27.4717 32.9109 27.7476 33.8582 28.2993ZM37.3518 26.6294V39H35.7039V26.6294H37.3518ZM45.9358 35.8213H40.8235C40.8674 36.4072 41.0579 36.8735 41.3948 37.2202C41.7317 37.562 42.1638 37.7329 42.6912 37.7329C43.1013 37.7329 43.4407 37.6353 43.7092 37.4399C43.9729 37.2446 44.2732 36.8833 44.6101 36.356L46.0017 37.1323C45.7869 37.4985 45.5598 37.8135 45.3206 38.0771C45.0813 38.3359 44.825 38.5508 44.5515 38.7217C44.2781 38.8877 43.9827 39.0098 43.6653 39.0879C43.3479 39.166 43.0037 39.2051 42.6326 39.2051C41.5681 39.2051 40.7136 38.8633 40.0691 38.1797C39.4246 37.4912 39.1023 36.5781 39.1023 35.4404C39.1023 34.3125 39.4148 33.3994 40.0398 32.7012C40.6697 32.0127 41.5047 31.6685 42.5447 31.6685C43.5945 31.6685 44.4246 32.0029 45.0349 32.6719C45.6404 33.3359 45.9431 34.2563 45.9431 35.4331L45.9358 35.8213ZM44.2439 34.4736C44.0144 33.5947 43.4602 33.1553 42.5813 33.1553C42.3811 33.1553 42.1931 33.187 42.0173 33.2505C41.8416 33.3091 41.6804 33.397 41.534 33.5142C41.3923 33.6265 41.2703 33.7632 41.1677 33.9243C41.0652 34.0854 40.9871 34.2686 40.9334 34.4736H44.2439ZM53.0037 31.8662H54.659V39H53.0037V38.2529C52.325 38.8877 51.595 39.2051 50.8137 39.2051C49.8274 39.2051 49.012 38.8486 48.3674 38.1357C47.7278 37.4082 47.408 36.5 47.408 35.4111C47.408 34.3418 47.7278 33.4507 48.3674 32.7378C49.0071 32.0249 49.8079 31.6685 50.7698 31.6685C51.5999 31.6685 52.3445 32.0103 53.0037 32.6938V31.8662ZM49.0925 35.4111C49.0925 36.0947 49.2757 36.6514 49.6419 37.0811C50.0178 37.5156 50.4915 37.7329 51.0628 37.7329C51.6731 37.7329 52.1663 37.5229 52.5423 37.103C52.9182 36.6685 53.1062 36.1167 53.1062 35.4478C53.1062 34.7788 52.9182 34.2271 52.5423 33.7925C52.1663 33.3677 51.678 33.1553 51.0774 33.1553C50.511 33.1553 50.0374 33.3701 49.6565 33.7998C49.2805 34.2344 49.0925 34.7715 49.0925 35.4111ZM56.739 31.8662H58.387V32.5034C58.6897 32.186 58.9583 31.9688 59.1926 31.8516C59.4319 31.7295 59.7151 31.6685 60.0423 31.6685C60.4768 31.6685 60.9309 31.8101 61.4046 32.0933L60.6502 33.6021C60.3377 33.3774 60.0325 33.2651 59.7346 33.2651C58.8362 33.2651 58.387 33.9438 58.387 35.3013V39H56.739V31.8662ZM28.9216 50.8213H23.8093C23.8533 51.4072 24.0437 51.8735 24.3806 52.2202C24.7175 52.562 25.1497 52.7329 25.677 52.7329C26.0872 52.7329 26.4265 52.6353 26.6951 52.4399C26.9588 52.2446 27.259 51.8833 27.596 51.356L28.9876 52.1323C28.7727 52.4985 28.5457 52.8135 28.3064 53.0771C28.0672 53.3359 27.8108 53.5508 27.5374 53.7217C27.2639 53.8877 26.9685 54.0098 26.6511 54.0879C26.3338 54.166 25.9895 54.2051 25.6184 54.2051C24.554 54.2051 23.6995 53.8633 23.0549 53.1797C22.4104 52.4912 22.0882 51.5781 22.0882 50.4404C22.0882 49.3125 22.4007 48.3994 23.0257 47.7012C23.6555 47.0127 24.4905 46.6685 25.5305 46.6685C26.5803 46.6685 27.4104 47.0029 28.0208 47.6719C28.6262 48.3359 28.929 49.2563 28.929 50.4331L28.9216 50.8213ZM27.2298 49.4736C27.0003 48.5947 26.4461 48.1553 25.5672 48.1553C25.367 48.1553 25.179 48.187 25.0032 48.2505C24.8274 48.3091 24.6663 48.397 24.5198 48.5142C24.3782 48.6265 24.2561 48.7632 24.1536 48.9243C24.051 49.0854 23.9729 49.2686 23.9192 49.4736H27.2298ZM30.7307 46.8662H32.386V47.5254C32.9622 46.9541 33.6116 46.6685 34.3342 46.6685C35.1643 46.6685 35.8113 46.9297 36.2752 47.4521C36.6756 47.8965 36.8757 48.6216 36.8757 49.6274V54H35.2205V50.0156C35.2205 49.3125 35.1228 48.8267 34.9275 48.5581C34.7371 48.2847 34.3904 48.1479 33.8875 48.1479C33.3406 48.1479 32.9524 48.3286 32.7229 48.6899C32.4983 49.0464 32.386 49.6689 32.386 50.5576V54H30.7307V46.8662ZM45.8626 53.8315C45.8626 54.1685 45.8504 54.4639 45.8259 54.7178C45.8064 54.9766 45.7771 55.2036 45.7381 55.3989C45.6209 55.936 45.3914 56.3975 45.0496 56.7832C44.405 57.5254 43.5188 57.8965 42.3909 57.8965C41.4387 57.8965 40.655 57.6401 40.0398 57.1274C39.405 56.6001 39.0388 55.8701 38.9412 54.9375H40.5965C40.6599 55.2891 40.7649 55.5601 40.9114 55.7505C41.2532 56.1948 41.7512 56.417 42.4055 56.417C43.6116 56.417 44.2146 55.6772 44.2146 54.1978V53.2017C43.5603 53.8706 42.8059 54.2051 41.9514 54.2051C40.9798 54.2051 40.1839 53.8535 39.5637 53.1504C38.9387 52.4375 38.6262 51.5464 38.6262 50.4771C38.6262 49.437 38.9168 48.5532 39.4978 47.8257C40.1228 47.0542 40.948 46.6685 41.9734 46.6685C42.8718 46.6685 43.6189 47.0029 44.2146 47.6719V46.8662H45.8626V53.8315ZM44.2805 50.4478C44.2805 49.7544 44.095 49.2002 43.7239 48.7852C43.3479 48.3604 42.867 48.1479 42.281 48.1479C41.656 48.1479 41.1629 48.3799 40.8015 48.8438C40.4744 49.2588 40.3108 49.7959 40.3108 50.4551C40.3108 51.1045 40.4744 51.6367 40.8015 52.0518C41.158 52.5059 41.6511 52.7329 42.281 52.7329C42.9109 52.7329 43.409 52.5034 43.7752 52.0444C44.1121 51.6294 44.2805 51.0972 44.2805 50.4478ZM49.5906 41.6294V54H47.9426V41.6294H49.5906ZM53.3259 46.8662V54H51.678V46.8662H53.3259ZM51.429 43.8999C51.429 43.6118 51.534 43.3628 51.7439 43.1528C51.9539 42.9429 52.2053 42.8379 52.4983 42.8379C52.7962 42.8379 53.0501 42.9429 53.26 43.1528C53.47 43.3579 53.575 43.6094 53.575 43.9072C53.575 44.2051 53.47 44.459 53.26 44.6689C53.0549 44.8789 52.8035 44.9839 52.5056 44.9839C52.2078 44.9839 51.9539 44.8789 51.7439 44.6689C51.534 44.459 51.429 44.2026 51.429 43.8999ZM59.5589 48.082L58.1965 48.8071C57.9817 48.3677 57.7156 48.1479 57.3982 48.1479C57.2468 48.1479 57.1174 48.1992 57.01 48.3018C56.9026 48.3994 56.8489 48.5264 56.8489 48.6826C56.8489 48.9561 57.1663 49.2271 57.801 49.4956C58.6751 49.8716 59.2634 50.2183 59.5662 50.5356C59.8689 50.853 60.0203 51.2803 60.0203 51.8174C60.0203 52.5059 59.7664 53.082 59.2586 53.5459C58.7654 53.9854 58.1697 54.2051 57.4715 54.2051C56.2752 54.2051 55.428 53.6216 54.9299 52.4546L56.3362 51.8027C56.5315 52.1445 56.6804 52.3618 56.783 52.4546C56.9832 52.6401 57.2224 52.7329 57.5007 52.7329C58.0574 52.7329 58.3357 52.479 58.3357 51.9712C58.3357 51.6782 58.1209 51.4048 57.6912 51.1509C57.5252 51.0679 57.3591 50.9873 57.1931 50.9092C57.0271 50.8311 56.8587 50.7505 56.6878 50.6675C56.2092 50.4331 55.8723 50.1987 55.677 49.9644C55.428 49.6665 55.3035 49.2832 55.3035 48.8145C55.3035 48.1943 55.5159 47.6816 55.9407 47.2764C56.3753 46.8711 56.9026 46.6685 57.5227 46.6685C58.4358 46.6685 59.1145 47.1396 59.5589 48.082ZM61.5071 41.6294H63.155V47.4595C63.741 46.9321 64.388 46.6685 65.096 46.6685C65.9016 46.6685 66.5462 46.9297 67.0296 47.4521C67.4397 47.9062 67.6448 48.6313 67.6448 49.6274V54H65.9968V49.7812C65.9968 49.21 65.8943 48.7974 65.6892 48.5435C65.489 48.2847 65.1643 48.1553 64.7151 48.1553C64.1389 48.1553 63.7337 48.3335 63.4993 48.6899C63.2698 49.0513 63.155 49.6714 63.155 50.5503V54H61.5071V41.6294Z" fill="#BBC0EB"/>
<g filter="url(#filter7_i_26_79)">
<path d="M6.38868 9.57562C7.4432 7.8137 10.2349 7.54052 12.6241 8.96546C14.463 10.0622 14.9028 12.8889 15.0078 14.1329C15.0392 14.5039 14.8354 14.8443 14.4934 14.9925C13.3462 15.4897 10.6442 16.4427 8.80532 15.3459C6.41612 13.921 5.33415 11.3375 6.38868 9.57562Z" fill="#2945FF"/>
</g>
<g filter="url(#filter8_i_26_79)">
<path d="M16.238 4.85434C18.2862 5.09021 19.6893 7.50717 19.372 10.2528C19.1275 12.3689 16.7156 13.9225 15.6226 14.5236C15.2983 14.702 14.9067 14.6569 14.6317 14.4095C13.7044 13.5757 11.7103 11.5147 11.9549 9.3986C12.2722 6.65301 14.1898 4.61847 16.238 4.85434Z" fill="#2945FF"/>
</g>
<g filter="url(#filter9_i_26_79)">
<path d="M24.6155 12.0556C25.1713 14.0316 23.4497 16.2424 20.7702 16.9934C18.7077 17.5715 16.3496 15.9456 15.3729 15.1661C15.0817 14.9337 14.9744 14.5521 15.1018 14.2024C15.5293 13.0293 16.6949 10.4157 18.7574 9.83764C21.4369 9.08658 24.0596 10.0796 24.6155 12.0556Z" fill="#2945FF"/>
</g>
<g filter="url(#filter10_i_26_79)">
<path d="M20.3114 23.2305C18.565 24.3137 15.9586 23.2787 14.4897 20.9189C13.3592 19.1026 14.2667 16.3892 14.7447 15.2355C14.8872 14.8916 15.2246 14.6823 15.5967 14.7071C16.8445 14.7903 19.6835 15.18 20.814 16.9963C22.2828 19.3561 22.0578 22.1473 20.3114 23.2305Z" fill="#2945FF"/>
</g>
<g filter="url(#filter11_i_26_79)">
<path d="M11.8555 24.2869C9.90032 23.6521 9.01317 20.9957 9.87404 18.3537C10.5367 16.3201 13.2002 15.2639 14.3918 14.8853C14.747 14.7724 15.1245 14.895 15.3452 15.1949C16.0857 16.2008 17.6171 18.619 16.9545 20.6527C16.0936 23.2947 13.8108 24.9218 11.8555 24.2869Z" fill="#2945FF"/>
</g>
<g filter="url(#filter12_i_26_79)">
<path d="M5.50301 18.034C4.85449 16.0863 6.46976 13.797 9.11083 12.9207C11.1437 12.2462 13.576 13.7593 14.5884 14.492C14.8903 14.7104 15.0155 15.0865 14.9047 15.4418C14.5331 16.6337 13.4922 19.2993 11.4593 19.9738C8.81828 20.8501 6.15154 19.9816 5.50301 18.034Z" fill="#2945FF"/>
</g>
<g filter="url(#filter13_i_26_79)">
<path d="M67.5013 10.5756C68.5559 8.81372 71.3476 8.54054 73.7368 9.96548C75.5757 11.0622 76.0155 13.8889 76.1205 15.133C76.1518 15.5039 75.9481 15.8443 75.606 15.9926C74.4589 16.4897 71.7569 17.4427 69.918 16.346C67.5288 14.921 66.4468 12.3376 67.5013 10.5756Z" fill="#2945FF"/>
</g>
<g filter="url(#filter14_i_26_79)">
<path d="M77.3506 5.85436C79.3988 6.09023 80.802 8.50719 80.4847 11.2528C80.2401 13.3689 77.8283 14.9225 76.7352 15.5237C76.4109 15.702 76.0194 15.6569 75.7443 15.4095C74.8171 14.5757 72.823 12.5147 73.0675 10.3986C73.3848 7.65302 75.3024 5.61849 77.3506 5.85436Z" fill="#2945FF"/>
</g>
<g filter="url(#filter15_i_26_79)">
<path d="M85.7281 13.0556C86.284 15.0316 84.5624 17.2424 81.8828 17.9934C79.8204 18.5715 77.4623 16.9456 76.4855 16.1661C76.1944 15.9338 76.087 15.5522 76.2145 15.2025C76.6419 14.0294 77.8076 11.4158 79.87 10.8377C82.5496 10.0866 85.1723 11.0796 85.7281 13.0556Z" fill="#2945FF"/>
</g>
<g filter="url(#filter16_i_26_79)">
<path d="M81.4241 24.2305C79.6777 25.3137 77.0712 24.2787 75.6024 21.9189C74.4719 20.1026 75.3794 17.3892 75.8574 16.2356C75.9999 15.8916 76.3373 15.6823 76.7094 15.7071C77.9572 15.7903 80.7962 16.18 81.9267 17.9963C83.3955 20.3562 83.1705 23.1473 81.4241 24.2305Z" fill="#2945FF"/>
</g>
<g filter="url(#filter17_i_26_79)">
<path d="M72.9682 25.287C71.013 24.6521 70.1258 21.9957 70.9867 19.3537C71.6493 17.3201 74.3129 16.2639 75.5045 15.8853C75.8597 15.7724 76.2372 15.895 76.4579 16.1949C77.1984 17.2008 78.7298 19.6191 78.0672 21.6527C77.2063 24.2947 74.9234 25.9218 72.9682 25.287Z" fill="#2945FF"/>
</g>
<g filter="url(#filter18_i_26_79)">
<path d="M66.6157 19.034C65.9672 17.0863 67.5824 14.797 70.2235 13.9207C72.2564 13.2462 74.6887 14.7593 75.7011 15.492C76.0029 15.7104 76.1282 16.0865 76.0174 16.4418C75.6458 17.6337 74.6049 20.2993 72.572 20.9738C69.931 21.8501 67.2642 20.9816 66.6157 19.034Z" fill="#2945FF"/>
</g>
<defs>
<filter id="filter0_bii_26_79" x="-19.993" y="-23" width="130" height="128" filterUnits="userSpaceOnUse" color-interpolation-filters="sRGB">
<feFlood flood-opacity="0" result="BackgroundImageFix"/>
<feGaussianBlur in="BackgroundImageFix" stdDeviation="12"/>
<feComposite in2="SourceAlpha" operator="in" result="effect1_backgroundBlur_26_79"/>
<feBlend mode="normal" in="SourceGraphic" in2="effect1_backgroundBlur_26_79" result="shape"/>
<feColorMatrix in="SourceAlpha" type="matrix" values="0 0 0 0 0 0 0 0 0 0 0 0 0 0 0 0 0 0 127 0" result="hardAlpha"/>
<feOffset dx="-5.93333" dy="5.93333"/>
<feGaussianBlur stdDeviation="2.96667"/>
<feComposite in2="hardAlpha" operator="arithmetic" k2="-1" k3="1"/>
<feColorMatrix type="matrix" values="0 0 0 0 1 0 0 0 0 1 0 0 0 0 1 0 0 0 0.19 0"/>
<feBlend mode="normal" in2="shape" result="effect2_innerShadow_26_79"/>
<feColorMatrix in="SourceAlpha" type="matrix" values="0 0 0 0 0 0 0 0 0 0 0 0 0 0 0 0 0 0 127 0" result="hardAlpha"/>
<feOffset dx="5.93333" dy="-5.93333"/>
<feGaussianBlur stdDeviation="2.96667"/>
<feComposite in2="hardAlpha" operator="arithmetic" k2="-1" k3="1"/>
<feColorMatrix type="matrix" values="0 0 0 0 0.527474 0 0 0 0 0.574727 0 0 0 0 1 0 0 0 1 0"/>
<feBlend mode="normal" in2="effect2_innerShadow_26_79" result="effect3_innerShadow_26_79"/>
</filter>
<filter id="filter1_i_26_79" x="40.214" y="14.3244" width="4.82263" height="8.18864" filterUnits="userSpaceOnUse" color-interpolation-filters="sRGB">
<feFlood flood-opacity="0" result="BackgroundImageFix"/>
<feBlend mode="normal" in="SourceGraphic" in2="BackgroundImageFix" result="shape"/>
<feColorMatrix in="SourceAlpha" type="matrix" values="0 0 0 0 0 0 0 0 0 0 0 0 0 0 0 0 0 0 127 0" result="hardAlpha"/>
<feOffset dy="4"/>
<feGaussianBlur stdDeviation="2.5"/>
<feComposite in2="hardAlpha" operator="arithmetic" k2="-1" k3="1"/>
<feColorMatrix type="matrix" values="0 0 0 0 0.433333 0 0 0 0 0.507477 0 0 0 0 1 0 0 0 1 0"/>
<feBlend mode="normal" in2="shape" result="effect1_innerShadow_26_79"/>
</filter>
<filter id="filter2_i_26_79" x="43.4091" y="12.5969" width="4.01834" height="9.18118" filterUnits="userSpaceOnUse" color-interpolation-filters="sRGB">
<feFlood flood-opacity="0" result="BackgroundImageFix"/>
<feBlend mode="normal" in="SourceGraphic" in2="BackgroundImageFix" result="shape"/>
<feColorMatrix in="SourceAlpha" type="matrix" values="0 0 0 0 0 0 0 0 0 0 0 0 0 0 0 0 0 0 127 0" result="hardAlpha"/>
<feOffset dy="4"/>
<feGaussianBlur stdDeviation="2.5"/>
<feComposite in2="hardAlpha" operator="arithmetic" k2="-1" k3="1"/>
<feColorMatrix type="matrix" values="0 0 0 0 0.433333 0 0 0 0 0.507477 0 0 0 0 1 0 0 0 1 0"/>
<feBlend mode="normal" in2="shape" result="effect1_innerShadow_26_79"/>
</filter>
<filter id="filter3_i_26_79" x="45.1499" y="15.1484" width="5.12534" height="8.04289" filterUnits="userSpaceOnUse" color-interpolation-filters="sRGB">
<feFlood flood-opacity="0" result="BackgroundImageFix"/>
<feBlend mode="normal" in="SourceGraphic" in2="BackgroundImageFix" result="shape"/>
<feColorMatrix in="SourceAlpha" type="matrix" values="0 0 0 0 0 0 0 0 0 0 0 0 0 0 0 0 0 0 127 0" result="hardAlpha"/>
<feOffset dy="4"/>
<feGaussianBlur stdDeviation="2.5"/>
<feComposite in2="hardAlpha" operator="arithmetic" k2="-1" k3="1"/>
<feColorMatrix type="matrix" values="0 0 0 0 0.433333 0 0 0 0 0.507477 0 0 0 0 1 0 0 0 1 0"/>
<feBlend mode="normal" in2="shape" result="effect1_innerShadow_26_79"/>
</filter>
<filter id="filter4_i_26_79" x="44.4893" y="17.9178" width="4.2092" height="8.78831" filterUnits="userSpaceOnUse" color-interpolation-filters="sRGB">
<feFlood flood-opacity="0" result="BackgroundImageFix"/>
<feBlend mode="normal" in="SourceGraphic" in2="BackgroundImageFix" result="shape"/>
<feColorMatrix in="SourceAlpha" type="matrix" values="0 0 0 0 0 0 0 0 0 0 0 0 0 0 0 0 0 0 127 0" result="hardAlpha"/>
<feOffset dy="4"/>
<feGaussianBlur stdDeviation="2.5"/>
<feComposite in2="hardAlpha" operator="arithmetic" k2="-1" k3="1"/>
<feColorMatrix type="matrix" values="0 0 0 0 0.433333 0 0 0 0 0.507477 0 0 0 0 1 0 0 0 1 0"/>
<feBlend mode="normal" in2="shape" result="effect1_innerShadow_26_79"/>
</filter>
<filter id="filter5_i_26_79" x="42.1261" y="18.0347" width="4.06625" height="9.08177" filterUnits="userSpaceOnUse" color-interpolation-filters="sRGB">
<feFlood flood-opacity="0" result="BackgroundImageFix"/>
<feBlend mode="normal" in="SourceGraphic" in2="BackgroundImageFix" result="shape"/>
<feColorMatrix in="SourceAlpha" type="matrix" values="0 0 0 0 0 0 0 0 0 0 0 0 0 0 0 0 0 0 127 0" result="hardAlpha"/>
<feOffset dy="4"/>
<feGaussianBlur stdDeviation="2.5"/>
<feComposite in2="hardAlpha" operator="arithmetic" k2="-1" k3="1"/>
<feColorMatrix type="matrix" values="0 0 0 0 0.433333 0 0 0 0 0.507477 0 0 0 0 1 0 0 0 1 0"/>
<feBlend mode="normal" in2="shape" result="effect1_innerShadow_26_79"/>
</filter>
<filter id="filter6_i_26_79" x="39.8783" y="16.848" width="5.08481" height="8.06187" filterUnits="userSpaceOnUse" color-interpolation-filters="sRGB">
<feFlood flood-opacity="0" result="BackgroundImageFix"/>
<feBlend mode="normal" in="SourceGraphic" in2="BackgroundImageFix" result="shape"/>
<feColorMatrix in="SourceAlpha" type="matrix" values="0 0 0 0 0 0 0 0 0 0 0 0 0 0 0 0 0 0 127 0" result="hardAlpha"/>
<feOffset dy="4"/>
<feGaussianBlur stdDeviation="2.5"/>
<feComposite in2="hardAlpha" operator="arithmetic" k2="-1" k3="1"/>
<feColorMatrix type="matrix" values="0 0 0 0 0.433333 0 0 0 0 0.507477 0 0 0 0 1 0 0 0 1 0"/>
<feBlend mode="normal" in2="shape" result="effect1_innerShadow_26_79"/>
</filter>
<filter id="filter7_i_26_79" x="5.98486" y="8.05258" width="9.02615" height="11.7997" filterUnits="userSpaceOnUse" color-interpolation-filters="sRGB">
<feFlood flood-opacity="0" result="BackgroundImageFix"/>
<feBlend mode="normal" in="SourceGraphic" in2="BackgroundImageFix" result="shape"/>
<feColorMatrix in="SourceAlpha" type="matrix" values="0 0 0 0 0 0 0 0 0 0 0 0 0 0 0 0 0 0 127 0" result="hardAlpha"/>
<feOffset dy="4"/>
<feGaussianBlur stdDeviation="2.5"/>
<feComposite in2="hardAlpha" operator="arithmetic" k2="-1" k3="1"/>
<feColorMatrix type="matrix" values="0 0 0 0 1 0 0 0 0 1 0 0 0 0 1 0 0 0 0.25 0"/>
<feBlend mode="normal" in2="shape" result="effect1_innerShadow_26_79"/>
</filter>
<filter id="filter8_i_26_79" x="11.9343" y="4.83574" width="7.48254" height="13.7961" filterUnits="userSpaceOnUse" color-interpolation-filters="sRGB">
<feFlood flood-opacity="0" result="BackgroundImageFix"/>
<feBlend mode="normal" in="SourceGraphic" in2="BackgroundImageFix" result="shape"/>
<feColorMatrix in="SourceAlpha" type="matrix" values="0 0 0 0 0 0 0 0 0 0 0 0 0 0 0 0 0 0 127 0" result="hardAlpha"/>
<feOffset dy="4"/>
<feGaussianBlur stdDeviation="2.5"/>
<feComposite in2="hardAlpha" operator="arithmetic" k2="-1" k3="1"/>
<feColorMatrix type="matrix" values="0 0 0 0 1 0 0 0 0 1 0 0 0 0 1 0 0 0 0.25 0"/>
<feBlend mode="normal" in2="shape" result="effect1_innerShadow_26_79"/>
</filter>
<filter id="filter9_i_26_79" x="15.0489" y="9.58688" width="9.67087" height="11.5283" filterUnits="userSpaceOnUse" color-interpolation-filters="sRGB">
<feFlood flood-opacity="0" result="BackgroundImageFix"/>
<feBlend mode="normal" in="SourceGraphic" in2="BackgroundImageFix" result="shape"/>
<feColorMatrix in="SourceAlpha" type="matrix" values="0 0 0 0 0 0 0 0 0 0 0 0 0 0 0 0 0 0 127 0" result="hardAlpha"/>
<feOffset dy="4"/>
<feGaussianBlur stdDeviation="2.5"/>
<feComposite in2="hardAlpha" operator="arithmetic" k2="-1" k3="1"/>
<feColorMatrix type="matrix" values="0 0 0 0 1 0 0 0 0 1 0 0 0 0 1 0 0 0 0.25 0"/>
<feBlend mode="normal" in2="shape" result="effect1_innerShadow_26_79"/>
</filter>
<filter id="filter10_i_26_79" x="13.9458" y="14.7051" width="7.83801" height="12.9551" filterUnits="userSpaceOnUse" color-interpolation-filters="sRGB">
<feFlood flood-opacity="0" result="BackgroundImageFix"/>
<feBlend mode="normal" in="SourceGraphic" in2="BackgroundImageFix" result="shape"/>
<feColorMatrix in="SourceAlpha" type="matrix" values="0 0 0 0 0 0 0 0 0 0 0 0 0 0 0 0 0 0 127 0" result="hardAlpha"/>
<feOffset dy="4"/>
<feGaussianBlur stdDeviation="2.5"/>
<feComposite in2="hardAlpha" operator="arithmetic" k2="-1" k3="1"/>
<feColorMatrix type="matrix" values="0 0 0 0 1 0 0 0 0 1 0 0 0 0 1 0 0 0 0.25 0"/>
<feBlend mode="normal" in2="shape" result="effect1_innerShadow_26_79"/>
</filter>
<filter id="filter11_i_26_79" x="9.5451" y="14.8439" width="7.57178" height="13.5804" filterUnits="userSpaceOnUse" color-interpolation-filters="sRGB">
<feFlood flood-opacity="0" result="BackgroundImageFix"/>
<feBlend mode="normal" in="SourceGraphic" in2="BackgroundImageFix" result="shape"/>
<feColorMatrix in="SourceAlpha" type="matrix" values="0 0 0 0 0 0 0 0 0 0 0 0 0 0 0 0 0 0 127 0" result="hardAlpha"/>
<feOffset dy="4"/>
<feGaussianBlur stdDeviation="2.5"/>
<feComposite in2="hardAlpha" operator="arithmetic" k2="-1" k3="1"/>
<feColorMatrix type="matrix" values="0 0 0 0 1 0 0 0 0 1 0 0 0 0 1 0 0 0 0.25 0"/>
<feBlend mode="normal" in2="shape" result="effect1_innerShadow_26_79"/>
</filter>
<filter id="filter12_i_26_79" x="5.3598" y="12.7516" width="9.58472" height="11.5636" filterUnits="userSpaceOnUse" color-interpolation-filters="sRGB">
<feFlood flood-opacity="0" result="BackgroundImageFix"/>
<feBlend mode="normal" in="SourceGraphic" in2="BackgroundImageFix" result="shape"/>
<feColorMatrix in="SourceAlpha" type="matrix" values="0 0 0 0 0 0 0 0 0 0 0 0 0 0 0 0 0 0 127 0" result="hardAlpha"/>
<feOffset dy="4"/>
<feGaussianBlur stdDeviation="2.5"/>
<feComposite in2="hardAlpha" operator="arithmetic" k2="-1" k3="1"/>
<feColorMatrix type="matrix" values="0 0 0 0 1 0 0 0 0 1 0 0 0 0 1 0 0 0 0.25 0"/>
<feBlend mode="normal" in2="shape" result="effect1_innerShadow_26_79"/>
</filter>
<filter id="filter13_i_26_79" x="67.0975" y="9.0526" width="9.02615" height="11.7997" filterUnits="userSpaceOnUse" color-interpolation-filters="sRGB">
<feFlood flood-opacity="0" result="BackgroundImageFix"/>
<feBlend mode="normal" in="SourceGraphic" in2="BackgroundImageFix" result="shape"/>
<feColorMatrix in="SourceAlpha" type="matrix" values="0 0 0 0 0 0 0 0 0 0 0 0 0 0 0 0 0 0 127 0" result="hardAlpha"/>
<feOffset dy="4"/>
<feGaussianBlur stdDeviation="2.5"/>
<feComposite in2="hardAlpha" operator="arithmetic" k2="-1" k3="1"/>
<feColorMatrix type="matrix" values="0 0 0 0 1 0 0 0 0 1 0 0 0 0 1 0 0 0 0.25 0"/>
<feBlend mode="normal" in2="shape" result="effect1_innerShadow_26_79"/>
</filter>
<filter id="filter14_i_26_79" x="73.0469" y="5.83575" width="7.48254" height="13.7961" filterUnits="userSpaceOnUse" color-interpolation-filters="sRGB">
<feFlood flood-opacity="0" result="BackgroundImageFix"/>
<feBlend mode="normal" in="SourceGraphic" in2="BackgroundImageFix" result="shape"/>
<feColorMatrix in="SourceAlpha" type="matrix" values="0 0 0 0 0 0 0 0 0 0 0 0 0 0 0 0 0 0 127 0" result="hardAlpha"/>
<feOffset dy="4"/>
<feGaussianBlur stdDeviation="2.5"/>
<feComposite in2="hardAlpha" operator="arithmetic" k2="-1" k3="1"/>
<feColorMatrix type="matrix" values="0 0 0 0 1 0 0 0 0 1 0 0 0 0 1 0 0 0 0.25 0"/>
<feBlend mode="normal" in2="shape" result="effect1_innerShadow_26_79"/>
</filter>
<filter id="filter15_i_26_79" x="76.1615" y="10.5869" width="9.67087" height="11.5283" filterUnits="userSpaceOnUse" color-interpolation-filters="sRGB">
<feFlood flood-opacity="0" result="BackgroundImageFix"/>
<feBlend mode="normal" in="SourceGraphic" in2="BackgroundImageFix" result="shape"/>
<feColorMatrix in="SourceAlpha" type="matrix" values="0 0 0 0 0 0 0 0 0 0 0 0 0 0 0 0 0 0 127 0" result="hardAlpha"/>
<feOffset dy="4"/>
<feGaussianBlur stdDeviation="2.5"/>
<feComposite in2="hardAlpha" operator="arithmetic" k2="-1" k3="1"/>
<feColorMatrix type="matrix" values="0 0 0 0 1 0 0 0 0 1 0 0 0 0 1 0 0 0 0.25 0"/>
<feBlend mode="normal" in2="shape" result="effect1_innerShadow_26_79"/>
</filter>
<filter id="filter16_i_26_79" x="75.0585" y="15.7051" width="7.83801" height="12.9551" filterUnits="userSpaceOnUse" color-interpolation-filters="sRGB">
<feFlood flood-opacity="0" result="BackgroundImageFix"/>
<feBlend mode="normal" in="SourceGraphic" in2="BackgroundImageFix" result="shape"/>
<feColorMatrix in="SourceAlpha" type="matrix" values="0 0 0 0 0 0 0 0 0 0 0 0 0 0 0 0 0 0 127 0" result="hardAlpha"/>
<feOffset dy="4"/>
<feGaussianBlur stdDeviation="2.5"/>
<feComposite in2="hardAlpha" operator="arithmetic" k2="-1" k3="1"/>
<feColorMatrix type="matrix" values="0 0 0 0 1 0 0 0 0 1 0 0 0 0 1 0 0 0 0.25 0"/>
<feBlend mode="normal" in2="shape" result="effect1_innerShadow_26_79"/>
</filter>
<filter id="filter17_i_26_79" x="70.6578" y="15.8439" width="7.57178" height="13.5804" filterUnits="userSpaceOnUse" color-interpolation-filters="sRGB">
<feFlood flood-opacity="0" result="BackgroundImageFix"/>
<feBlend mode="normal" in="SourceGraphic" in2="BackgroundImageFix" result="shape"/>
<feColorMatrix in="SourceAlpha" type="matrix" values="0 0 0 0 0 0 0 0 0 0 0 0 0 0 0 0 0 0 127 0" result="hardAlpha"/>
<feOffset dy="4"/>
<feGaussianBlur stdDeviation="2.5"/>
<feComposite in2="hardAlpha" operator="arithmetic" k2="-1" k3="1"/>
<feColorMatrix type="matrix" values="0 0 0 0 1 0 0 0 0 1 0 0 0 0 1 0 0 0 0.25 0"/>
<feBlend mode="normal" in2="shape" result="effect1_innerShadow_26_79"/>
</filter>
<filter id="filter18_i_26_79" x="66.4725" y="13.7517" width="9.58472" height="11.5636" filterUnits="userSpaceOnUse" color-interpolation-filters="sRGB">
<feFlood flood-opacity="0" result="BackgroundImageFix"/>
<feBlend mode="normal" in="SourceGraphic" in2="BackgroundImageFix" result="shape"/>
<feColorMatrix in="SourceAlpha" type="matrix" values="0 0 0 0 0 0 0 0 0 0 0 0 0 0 0 0 0 0 127 0" result="hardAlpha"/>
<feOffset dy="4"/>
<feGaussianBlur stdDeviation="2.5"/>
<feComposite in2="hardAlpha" operator="arithmetic" k2="-1" k3="1"/>
<feColorMatrix type="matrix" values="0 0 0 0 1 0 0 0 0 1 0 0 0 0 1 0 0 0 0.25 0"/>
<feBlend mode="normal" in2="shape" result="effect1_innerShadow_26_79"/>
</filter>
</defs>
</svg>
