<svg width="765" height="837" viewBox="0 0 765 837" fill="none" xmlns="http://www.w3.org/2000/svg">
<g opacity="0.8">
<g filter="url(#filter0_i_16_162)">
<path d="M178.92 268.646C208.453 219.215 286.637 211.551 353.549 251.528C414.209 287.77 420.508 391.352 421.156 410.39C421.219 412.251 420.199 413.959 418.53 414.785C401.458 423.237 307.261 466.776 246.6 430.534C179.688 390.557 149.386 318.077 178.92 268.646Z" fill="#2945FF"/>
</g>
<g filter="url(#filter1_i_16_162)">
<path d="M454.757 136.189C512.119 142.806 551.416 210.615 542.53 287.643C534.469 357.512 442.341 405.524 425.284 413.845C423.622 414.656 421.669 414.431 420.234 413.263C405.521 401.276 326.744 333.548 334.805 263.679C343.691 186.651 397.396 129.571 454.757 136.189Z" fill="#2945FF"/>
</g>
<g filter="url(#filter2_i_16_162)">
<path d="M689.376 338.223C704.943 393.66 656.728 455.683 581.685 476.754C513.654 495.857 434.135 429.182 419.871 416.557C418.476 415.322 417.938 413.407 418.486 411.627C424.094 393.422 457.283 295.099 525.315 275.997C600.357 254.926 673.81 282.785 689.376 338.223Z" fill="#2945FF"/>
</g>
<g filter="url(#filter3_i_16_162)">
<path d="M568.838 651.736C519.929 682.125 446.932 653.09 405.796 586.885C368.504 526.864 410.396 431.923 418.549 414.707C419.346 413.024 421.036 411.974 422.898 412.005C441.945 412.321 545.621 416.815 582.913 476.835C624.049 543.041 617.748 621.347 568.838 651.736Z" fill="#2945FF"/>
</g>
<g filter="url(#filter4_i_16_162)">
<path d="M332.025 681.376C277.267 663.565 252.422 589.039 276.531 514.917C298.388 447.719 397.98 418.561 416.399 413.7C418.2 413.224 420.091 413.84 421.268 415.283C433.302 430.05 496.684 512.218 474.827 579.415C450.718 653.538 386.783 699.187 332.025 681.376Z" fill="#2945FF"/>
</g>
<g filter="url(#filter5_i_16_162)">
<path d="M154.114 505.947C135.952 451.305 181.189 387.078 255.155 362.492C322.21 340.204 404.784 403.056 419.627 414.995C421.079 416.162 421.706 418.05 421.243 419.854C416.499 438.303 387.983 538.081 320.927 560.369C246.962 584.955 172.277 560.589 154.114 505.947Z" fill="#2945FF"/>
</g>
<g filter="url(#filter6_i_16_162)">
<path d="M374.109 387.706C378.914 379.664 391.634 378.418 402.519 384.921C412.283 390.755 413.39 407.312 413.515 410.663C413.529 411.036 413.333 411.364 412.998 411.528C409.988 413.006 394.884 419.878 385.12 414.044C374.234 407.54 369.304 395.748 374.109 387.706Z" fill="#2945FF"/>
</g>
<g filter="url(#filter7_i_16_162)">
<path d="M418.985 366.157C428.318 367.233 434.711 378.265 433.265 390.797C431.968 402.043 417.284 409.808 414.283 411.284C413.952 411.447 413.575 411.403 413.289 411.169C410.703 409.049 398.173 398.144 399.47 386.898C400.916 374.367 409.653 365.08 418.985 366.157Z" fill="#2945FF"/>
</g>
<g filter="url(#filter8_i_16_162)">
<path d="M457.156 399.026C459.688 408.045 451.844 418.136 439.635 421.564C428.685 424.639 415.905 414.053 413.387 411.839C413.107 411.593 413.004 411.225 413.115 410.869C414.112 407.667 419.514 391.977 430.464 388.902C442.673 385.474 454.623 390.007 457.156 399.026Z" fill="#2945FF"/>
</g>
<g filter="url(#filter9_i_16_162)">
<path d="M437.545 450.032C429.588 454.976 417.712 450.252 411.02 439.481C405.017 429.82 411.625 414.598 413.05 411.563C413.209 411.226 413.533 411.024 413.906 411.032C417.259 411.098 433.833 411.916 439.835 421.577C446.528 432.348 445.502 445.088 437.545 450.032Z" fill="#2945FF"/>
</g>
<g filter="url(#filter10_i_16_162)">
<path d="M399.018 454.854C390.109 451.956 386.067 439.832 389.989 427.773C393.508 416.956 409.405 412.198 412.645 411.332C413.004 411.236 413.368 411.354 413.602 411.644C415.713 414.25 425.769 427.45 422.25 438.266C418.328 450.325 407.926 457.752 399.018 454.854Z" fill="#2945FF"/>
</g>
<g filter="url(#filter11_i_16_162)">
<path d="M370.073 426.313C367.118 417.424 374.478 406.974 386.512 402.974C397.305 399.387 410.569 409.358 413.189 411.451C413.48 411.684 413.601 412.046 413.507 412.407C412.662 415.652 408.006 431.58 397.212 435.167C385.179 439.167 373.028 435.203 370.073 426.313Z" fill="#2945FF"/>
</g>
</g>
<path opacity="0.5" d="M403.807 240V224.922H406.072C407.081 224.922 407.885 225 408.484 225.156C409.09 225.312 409.601 225.576 410.018 225.947C410.441 226.331 410.776 226.81 411.023 227.383C411.277 227.962 411.404 228.548 411.404 229.141C411.404 230.221 410.991 231.136 410.164 231.885C410.965 232.158 411.596 232.637 412.059 233.32C412.527 233.997 412.762 234.785 412.762 235.684C412.762 236.862 412.345 237.858 411.512 238.672C411.01 239.173 410.447 239.521 409.822 239.717C409.139 239.906 408.283 240 407.254 240H403.807ZM406.082 231.396H406.795C407.641 231.396 408.26 231.211 408.65 230.84C409.048 230.462 409.246 229.909 409.246 229.18C409.246 228.47 409.044 227.933 408.641 227.568C408.237 227.197 407.651 227.012 406.883 227.012H406.082V231.396ZM406.082 237.861H407.488C408.517 237.861 409.272 237.66 409.754 237.256C410.262 236.82 410.516 236.266 410.516 235.596C410.516 234.945 410.271 234.398 409.783 233.955C409.308 233.519 408.458 233.301 407.234 233.301H406.082V237.861ZM423.885 235.762H417.068C417.127 236.543 417.381 237.165 417.83 237.627C418.279 238.083 418.855 238.311 419.559 238.311C420.105 238.311 420.558 238.18 420.916 237.92C421.268 237.66 421.668 237.178 422.117 236.475L423.973 237.51C423.686 237.998 423.383 238.418 423.064 238.77C422.745 239.115 422.404 239.401 422.039 239.629C421.674 239.85 421.281 240.013 420.857 240.117C420.434 240.221 419.975 240.273 419.48 240.273C418.061 240.273 416.922 239.818 416.062 238.906C415.203 237.988 414.773 236.771 414.773 235.254C414.773 233.75 415.19 232.533 416.023 231.602C416.863 230.684 417.977 230.225 419.363 230.225C420.763 230.225 421.87 230.671 422.684 231.562C423.491 232.448 423.895 233.675 423.895 235.244L423.885 235.762ZM421.629 233.965C421.323 232.793 420.584 232.207 419.412 232.207C419.145 232.207 418.895 232.249 418.66 232.334C418.426 232.412 418.211 232.529 418.016 232.686C417.827 232.835 417.664 233.018 417.527 233.232C417.391 233.447 417.286 233.691 417.215 233.965H421.629ZM428.494 223.506V240H426.297V223.506H428.494ZM433.475 230.488V240H431.277V230.488H433.475ZM430.945 226.533C430.945 226.149 431.085 225.817 431.365 225.537C431.645 225.257 431.98 225.117 432.371 225.117C432.768 225.117 433.107 225.257 433.387 225.537C433.667 225.811 433.807 226.146 433.807 226.543C433.807 226.94 433.667 227.279 433.387 227.559C433.113 227.839 432.778 227.979 432.381 227.979C431.984 227.979 431.645 227.839 431.365 227.559C431.085 227.279 430.945 226.937 430.945 226.533ZM437.439 230.488L439.9 235.83L442.352 230.488H444.822L439.881 240.654L434.979 230.488H437.439ZM454.627 235.762H447.811C447.869 236.543 448.123 237.165 448.572 237.627C449.021 238.083 449.598 238.311 450.301 238.311C450.848 238.311 451.3 238.18 451.658 237.92C452.01 237.66 452.41 237.178 452.859 236.475L454.715 237.51C454.428 237.998 454.126 238.418 453.807 238.77C453.488 239.115 453.146 239.401 452.781 239.629C452.417 239.85 452.023 240.013 451.6 240.117C451.176 240.221 450.717 240.273 450.223 240.273C448.803 240.273 447.664 239.818 446.805 238.906C445.945 237.988 445.516 236.771 445.516 235.254C445.516 233.75 445.932 232.533 446.766 231.602C447.605 230.684 448.719 230.225 450.105 230.225C451.505 230.225 452.612 230.671 453.426 231.562C454.233 232.448 454.637 233.675 454.637 235.244L454.627 235.762ZM452.371 233.965C452.065 232.793 451.326 232.207 450.154 232.207C449.887 232.207 449.637 232.249 449.402 232.334C449.168 232.412 448.953 232.529 448.758 232.686C448.569 232.835 448.406 233.018 448.27 233.232C448.133 233.447 448.029 233.691 447.957 233.965H452.371ZM405.584 257.488V267H403.387V257.488H405.584ZM403.055 253.533C403.055 253.149 403.195 252.817 403.475 252.537C403.755 252.257 404.09 252.117 404.48 252.117C404.878 252.117 405.216 252.257 405.496 252.537C405.776 252.811 405.916 253.146 405.916 253.543C405.916 253.94 405.776 254.279 405.496 254.559C405.223 254.839 404.887 254.979 404.49 254.979C404.093 254.979 403.755 254.839 403.475 254.559C403.195 254.279 403.055 253.937 403.055 253.533ZM408.367 257.488H410.574V258.367C411.342 257.605 412.208 257.225 413.172 257.225C414.279 257.225 415.141 257.573 415.76 258.27C416.294 258.862 416.561 259.829 416.561 261.17V267H414.354V261.688C414.354 260.75 414.223 260.102 413.963 259.744C413.709 259.38 413.247 259.197 412.576 259.197C411.847 259.197 411.329 259.438 411.023 259.92C410.724 260.395 410.574 261.225 410.574 262.41V267H408.367V257.488ZM428.514 265.232L424.236 257.488H426.785L429.695 262.957L432.41 257.488H434.891L427.312 272.176H424.803L428.514 265.232ZM435.555 262.176C435.555 260.802 436.046 259.633 437.029 258.67C438.012 257.706 439.21 257.225 440.623 257.225C442.042 257.225 443.247 257.71 444.236 258.68C445.213 259.65 445.701 260.841 445.701 262.254C445.701 263.68 445.21 264.874 444.227 265.838C443.237 266.795 442.023 267.273 440.584 267.273C439.158 267.273 437.964 266.785 437 265.809C436.036 264.845 435.555 263.634 435.555 262.176ZM437.801 262.215C437.801 263.165 438.055 263.917 438.562 264.471C439.083 265.031 439.77 265.311 440.623 265.311C441.482 265.311 442.169 265.034 442.684 264.48C443.198 263.927 443.455 263.188 443.455 262.264C443.455 261.339 443.198 260.6 442.684 260.047C442.163 259.487 441.476 259.207 440.623 259.207C439.783 259.207 439.103 259.487 438.582 260.047C438.061 260.607 437.801 261.329 437.801 262.215ZM450.232 257.488V262.947C450.232 264.523 450.854 265.311 452.098 265.311C453.341 265.311 453.963 264.523 453.963 262.947V257.488H456.16V262.996C456.16 263.758 456.066 264.415 455.877 264.969C455.695 265.464 455.379 265.91 454.93 266.307C454.188 266.951 453.243 267.273 452.098 267.273C450.958 267.273 450.018 266.951 449.275 266.307C448.82 265.91 448.497 265.464 448.309 264.969C448.126 264.526 448.035 263.868 448.035 262.996V257.488H450.232ZM461.209 259.539V267H459.002V259.539H458.221V257.488H459.002V253.816C459.002 252.618 459.21 251.772 459.627 251.277C460.2 250.587 461.033 250.242 462.127 250.242C462.518 250.242 463.009 250.356 463.602 250.584V252.83L463.377 252.713C462.902 252.472 462.511 252.352 462.205 252.352C461.814 252.352 461.551 252.492 461.414 252.771C461.277 253.045 461.209 253.572 461.209 254.354V257.488H463.602V259.539H461.209ZM470.398 259.109L468.582 260.076C468.296 259.49 467.941 259.197 467.518 259.197C467.316 259.197 467.143 259.266 467 259.402C466.857 259.533 466.785 259.702 466.785 259.91C466.785 260.275 467.208 260.636 468.055 260.994C469.22 261.495 470.005 261.958 470.408 262.381C470.812 262.804 471.014 263.374 471.014 264.09C471.014 265.008 470.675 265.776 469.998 266.395C469.34 266.98 468.546 267.273 467.615 267.273C466.02 267.273 464.891 266.495 464.227 264.939L466.102 264.07C466.362 264.526 466.561 264.816 466.697 264.939C466.964 265.187 467.283 265.311 467.654 265.311C468.396 265.311 468.768 264.972 468.768 264.295C468.768 263.904 468.481 263.54 467.908 263.201C467.687 263.09 467.465 262.983 467.244 262.879C467.023 262.775 466.798 262.667 466.57 262.557C465.932 262.244 465.483 261.932 465.223 261.619C464.891 261.222 464.725 260.711 464.725 260.086C464.725 259.259 465.008 258.576 465.574 258.035C466.154 257.495 466.857 257.225 467.684 257.225C468.901 257.225 469.806 257.853 470.398 259.109ZM481.658 262.762H474.842C474.9 263.543 475.154 264.165 475.604 264.627C476.053 265.083 476.629 265.311 477.332 265.311C477.879 265.311 478.331 265.18 478.689 264.92C479.041 264.66 479.441 264.178 479.891 263.475L481.746 264.51C481.46 264.998 481.157 265.418 480.838 265.77C480.519 266.115 480.177 266.401 479.812 266.629C479.448 266.85 479.054 267.013 478.631 267.117C478.208 267.221 477.749 267.273 477.254 267.273C475.835 267.273 474.695 266.818 473.836 265.906C472.977 264.988 472.547 263.771 472.547 262.254C472.547 260.75 472.964 259.533 473.797 258.602C474.637 257.684 475.75 257.225 477.137 257.225C478.536 257.225 479.643 257.671 480.457 258.562C481.264 259.448 481.668 260.675 481.668 262.244L481.658 262.762ZM479.402 260.965C479.096 259.793 478.357 259.207 477.186 259.207C476.919 259.207 476.668 259.249 476.434 259.334C476.199 259.412 475.984 259.529 475.789 259.686C475.6 259.835 475.438 260.018 475.301 260.232C475.164 260.447 475.06 260.691 474.988 260.965H479.402ZM486.268 250.506V267H484.07V250.506H486.268ZM491.326 259.539V267H489.119V259.539H488.338V257.488H489.119V253.816C489.119 252.618 489.327 251.772 489.744 251.277C490.317 250.587 491.15 250.242 492.244 250.242C492.635 250.242 493.126 250.356 493.719 250.584V252.83L493.494 252.713C493.019 252.472 492.628 252.352 492.322 252.352C491.932 252.352 491.668 252.492 491.531 252.771C491.395 253.045 491.326 253.572 491.326 254.354V257.488H493.719V259.539H491.326Z" fill="white"/>
<path opacity="0.5" d="M519.807 364V348.922H522.072C523.081 348.922 523.885 349 524.484 349.156C525.09 349.312 525.601 349.576 526.018 349.947C526.441 350.331 526.776 350.81 527.023 351.383C527.277 351.962 527.404 352.548 527.404 353.141C527.404 354.221 526.991 355.136 526.164 355.885C526.965 356.158 527.596 356.637 528.059 357.32C528.527 357.997 528.762 358.785 528.762 359.684C528.762 360.862 528.345 361.858 527.512 362.672C527.01 363.173 526.447 363.521 525.822 363.717C525.139 363.906 524.283 364 523.254 364H519.807ZM522.082 355.396H522.795C523.641 355.396 524.26 355.211 524.65 354.84C525.048 354.462 525.246 353.909 525.246 353.18C525.246 352.47 525.044 351.933 524.641 351.568C524.237 351.197 523.651 351.012 522.883 351.012H522.082V355.396ZM522.082 361.861H523.488C524.517 361.861 525.272 361.66 525.754 361.256C526.262 360.82 526.516 360.266 526.516 359.596C526.516 358.945 526.271 358.398 525.783 357.955C525.308 357.519 524.458 357.301 523.234 357.301H522.082V361.861ZM539.885 359.762H533.068C533.127 360.543 533.381 361.165 533.83 361.627C534.279 362.083 534.855 362.311 535.559 362.311C536.105 362.311 536.558 362.18 536.916 361.92C537.268 361.66 537.668 361.178 538.117 360.475L539.973 361.51C539.686 361.998 539.383 362.418 539.064 362.77C538.745 363.115 538.404 363.401 538.039 363.629C537.674 363.85 537.281 364.013 536.857 364.117C536.434 364.221 535.975 364.273 535.48 364.273C534.061 364.273 532.922 363.818 532.062 362.906C531.203 361.988 530.773 360.771 530.773 359.254C530.773 357.75 531.19 356.533 532.023 355.602C532.863 354.684 533.977 354.225 535.363 354.225C536.763 354.225 537.87 354.671 538.684 355.562C539.491 356.448 539.895 357.675 539.895 359.244L539.885 359.762ZM537.629 357.965C537.323 356.793 536.584 356.207 535.412 356.207C535.145 356.207 534.895 356.249 534.66 356.334C534.426 356.412 534.211 356.529 534.016 356.686C533.827 356.835 533.664 357.018 533.527 357.232C533.391 357.447 533.286 357.691 533.215 357.965H537.629ZM544.494 347.506V364H542.297V347.506H544.494ZM549.475 354.488V364H547.277V354.488H549.475ZM546.945 350.533C546.945 350.149 547.085 349.817 547.365 349.537C547.645 349.257 547.98 349.117 548.371 349.117C548.768 349.117 549.107 349.257 549.387 349.537C549.667 349.811 549.807 350.146 549.807 350.543C549.807 350.94 549.667 351.279 549.387 351.559C549.113 351.839 548.778 351.979 548.381 351.979C547.984 351.979 547.645 351.839 547.365 351.559C547.085 351.279 546.945 350.937 546.945 350.533ZM553.439 354.488L555.9 359.83L558.352 354.488H560.822L555.881 364.654L550.979 354.488H553.439ZM570.627 359.762H563.811C563.869 360.543 564.123 361.165 564.572 361.627C565.021 362.083 565.598 362.311 566.301 362.311C566.848 362.311 567.3 362.18 567.658 361.92C568.01 361.66 568.41 361.178 568.859 360.475L570.715 361.51C570.428 361.998 570.126 362.418 569.807 362.77C569.488 363.115 569.146 363.401 568.781 363.629C568.417 363.85 568.023 364.013 567.6 364.117C567.176 364.221 566.717 364.273 566.223 364.273C564.803 364.273 563.664 363.818 562.805 362.906C561.945 361.988 561.516 360.771 561.516 359.254C561.516 357.75 561.932 356.533 562.766 355.602C563.605 354.684 564.719 354.225 566.105 354.225C567.505 354.225 568.612 354.671 569.426 355.562C570.233 356.448 570.637 357.675 570.637 359.244L570.627 359.762ZM568.371 357.965C568.065 356.793 567.326 356.207 566.154 356.207C565.887 356.207 565.637 356.249 565.402 356.334C565.168 356.412 564.953 356.529 564.758 356.686C564.569 356.835 564.406 357.018 564.27 357.232C564.133 357.447 564.029 357.691 563.957 357.965H568.371ZM521.584 381.488V391H519.387V381.488H521.584ZM519.055 377.533C519.055 377.149 519.195 376.817 519.475 376.537C519.755 376.257 520.09 376.117 520.48 376.117C520.878 376.117 521.216 376.257 521.496 376.537C521.776 376.811 521.916 377.146 521.916 377.543C521.916 377.94 521.776 378.279 521.496 378.559C521.223 378.839 520.887 378.979 520.49 378.979C520.093 378.979 519.755 378.839 519.475 378.559C519.195 378.279 519.055 377.937 519.055 377.533ZM524.367 381.488H526.574V382.367C527.342 381.605 528.208 381.225 529.172 381.225C530.279 381.225 531.141 381.573 531.76 382.27C532.294 382.862 532.561 383.829 532.561 385.17V391H530.354V385.688C530.354 384.75 530.223 384.102 529.963 383.744C529.709 383.38 529.247 383.197 528.576 383.197C527.847 383.197 527.329 383.438 527.023 383.92C526.724 384.395 526.574 385.225 526.574 386.41V391H524.367V381.488ZM544.514 389.232L540.236 381.488H542.785L545.695 386.957L548.41 381.488H550.891L543.312 396.176H540.803L544.514 389.232ZM551.555 386.176C551.555 384.802 552.046 383.633 553.029 382.67C554.012 381.706 555.21 381.225 556.623 381.225C558.042 381.225 559.247 381.71 560.236 382.68C561.213 383.65 561.701 384.841 561.701 386.254C561.701 387.68 561.21 388.874 560.227 389.838C559.237 390.795 558.023 391.273 556.584 391.273C555.158 391.273 553.964 390.785 553 389.809C552.036 388.845 551.555 387.634 551.555 386.176ZM553.801 386.215C553.801 387.165 554.055 387.917 554.562 388.471C555.083 389.031 555.77 389.311 556.623 389.311C557.482 389.311 558.169 389.034 558.684 388.48C559.198 387.927 559.455 387.188 559.455 386.264C559.455 385.339 559.198 384.6 558.684 384.047C558.163 383.487 557.476 383.207 556.623 383.207C555.783 383.207 555.103 383.487 554.582 384.047C554.061 384.607 553.801 385.329 553.801 386.215ZM566.232 381.488V386.947C566.232 388.523 566.854 389.311 568.098 389.311C569.341 389.311 569.963 388.523 569.963 386.947V381.488H572.16V386.996C572.16 387.758 572.066 388.415 571.877 388.969C571.695 389.464 571.379 389.91 570.93 390.307C570.188 390.951 569.243 391.273 568.098 391.273C566.958 391.273 566.018 390.951 565.275 390.307C564.82 389.91 564.497 389.464 564.309 388.969C564.126 388.526 564.035 387.868 564.035 386.996V381.488H566.232ZM577.209 383.539V391H575.002V383.539H574.221V381.488H575.002V377.816C575.002 376.618 575.21 375.772 575.627 375.277C576.2 374.587 577.033 374.242 578.127 374.242C578.518 374.242 579.009 374.356 579.602 374.584V376.83L579.377 376.713C578.902 376.472 578.511 376.352 578.205 376.352C577.814 376.352 577.551 376.492 577.414 376.771C577.277 377.045 577.209 377.572 577.209 378.354V381.488H579.602V383.539H577.209ZM586.398 383.109L584.582 384.076C584.296 383.49 583.941 383.197 583.518 383.197C583.316 383.197 583.143 383.266 583 383.402C582.857 383.533 582.785 383.702 582.785 383.91C582.785 384.275 583.208 384.636 584.055 384.994C585.22 385.495 586.005 385.958 586.408 386.381C586.812 386.804 587.014 387.374 587.014 388.09C587.014 389.008 586.675 389.776 585.998 390.395C585.34 390.98 584.546 391.273 583.615 391.273C582.02 391.273 580.891 390.495 580.227 388.939L582.102 388.07C582.362 388.526 582.561 388.816 582.697 388.939C582.964 389.187 583.283 389.311 583.654 389.311C584.396 389.311 584.768 388.972 584.768 388.295C584.768 387.904 584.481 387.54 583.908 387.201C583.687 387.09 583.465 386.983 583.244 386.879C583.023 386.775 582.798 386.667 582.57 386.557C581.932 386.244 581.483 385.932 581.223 385.619C580.891 385.222 580.725 384.711 580.725 384.086C580.725 383.259 581.008 382.576 581.574 382.035C582.154 381.495 582.857 381.225 583.684 381.225C584.901 381.225 585.806 381.853 586.398 383.109ZM597.658 386.762H590.842C590.9 387.543 591.154 388.165 591.604 388.627C592.053 389.083 592.629 389.311 593.332 389.311C593.879 389.311 594.331 389.18 594.689 388.92C595.041 388.66 595.441 388.178 595.891 387.475L597.746 388.51C597.46 388.998 597.157 389.418 596.838 389.77C596.519 390.115 596.177 390.401 595.812 390.629C595.448 390.85 595.054 391.013 594.631 391.117C594.208 391.221 593.749 391.273 593.254 391.273C591.835 391.273 590.695 390.818 589.836 389.906C588.977 388.988 588.547 387.771 588.547 386.254C588.547 384.75 588.964 383.533 589.797 382.602C590.637 381.684 591.75 381.225 593.137 381.225C594.536 381.225 595.643 381.671 596.457 382.562C597.264 383.448 597.668 384.675 597.668 386.244L597.658 386.762ZM595.402 384.965C595.096 383.793 594.357 383.207 593.186 383.207C592.919 383.207 592.668 383.249 592.434 383.334C592.199 383.412 591.984 383.529 591.789 383.686C591.6 383.835 591.438 384.018 591.301 384.232C591.164 384.447 591.06 384.691 590.988 384.965H595.402ZM602.268 374.506V391H600.07V374.506H602.268ZM607.326 383.539V391H605.119V383.539H604.338V381.488H605.119V377.816C605.119 376.618 605.327 375.772 605.744 375.277C606.317 374.587 607.15 374.242 608.244 374.242C608.635 374.242 609.126 374.356 609.719 374.584V376.83L609.494 376.713C609.019 376.472 608.628 376.352 608.322 376.352C607.932 376.352 607.668 376.492 607.531 376.771C607.395 377.045 607.326 377.572 607.326 378.354V381.488H609.719V383.539H607.326Z" fill="white"/>
<path opacity="0.5" d="M495.807 544V528.922H498.072C499.081 528.922 499.885 529 500.484 529.156C501.09 529.312 501.601 529.576 502.018 529.947C502.441 530.331 502.776 530.81 503.023 531.383C503.277 531.962 503.404 532.548 503.404 533.141C503.404 534.221 502.991 535.136 502.164 535.885C502.965 536.158 503.596 536.637 504.059 537.32C504.527 537.997 504.762 538.785 504.762 539.684C504.762 540.862 504.345 541.858 503.512 542.672C503.01 543.173 502.447 543.521 501.822 543.717C501.139 543.906 500.283 544 499.254 544H495.807ZM498.082 535.396H498.795C499.641 535.396 500.26 535.211 500.65 534.84C501.048 534.462 501.246 533.909 501.246 533.18C501.246 532.47 501.044 531.933 500.641 531.568C500.237 531.197 499.651 531.012 498.883 531.012H498.082V535.396ZM498.082 541.861H499.488C500.517 541.861 501.272 541.66 501.754 541.256C502.262 540.82 502.516 540.266 502.516 539.596C502.516 538.945 502.271 538.398 501.783 537.955C501.308 537.519 500.458 537.301 499.234 537.301H498.082V541.861ZM515.885 539.762H509.068C509.127 540.543 509.381 541.165 509.83 541.627C510.279 542.083 510.855 542.311 511.559 542.311C512.105 542.311 512.558 542.18 512.916 541.92C513.268 541.66 513.668 541.178 514.117 540.475L515.973 541.51C515.686 541.998 515.383 542.418 515.064 542.77C514.745 543.115 514.404 543.401 514.039 543.629C513.674 543.85 513.281 544.013 512.857 544.117C512.434 544.221 511.975 544.273 511.48 544.273C510.061 544.273 508.922 543.818 508.062 542.906C507.203 541.988 506.773 540.771 506.773 539.254C506.773 537.75 507.19 536.533 508.023 535.602C508.863 534.684 509.977 534.225 511.363 534.225C512.763 534.225 513.87 534.671 514.684 535.562C515.491 536.448 515.895 537.675 515.895 539.244L515.885 539.762ZM513.629 537.965C513.323 536.793 512.584 536.207 511.412 536.207C511.145 536.207 510.895 536.249 510.66 536.334C510.426 536.412 510.211 536.529 510.016 536.686C509.827 536.835 509.664 537.018 509.527 537.232C509.391 537.447 509.286 537.691 509.215 537.965H513.629ZM520.494 527.506V544H518.297V527.506H520.494ZM525.475 534.488V544H523.277V534.488H525.475ZM522.945 530.533C522.945 530.149 523.085 529.817 523.365 529.537C523.645 529.257 523.98 529.117 524.371 529.117C524.768 529.117 525.107 529.257 525.387 529.537C525.667 529.811 525.807 530.146 525.807 530.543C525.807 530.94 525.667 531.279 525.387 531.559C525.113 531.839 524.778 531.979 524.381 531.979C523.984 531.979 523.645 531.839 523.365 531.559C523.085 531.279 522.945 530.937 522.945 530.533ZM529.439 534.488L531.9 539.83L534.352 534.488H536.822L531.881 544.654L526.979 534.488H529.439ZM546.627 539.762H539.811C539.869 540.543 540.123 541.165 540.572 541.627C541.021 542.083 541.598 542.311 542.301 542.311C542.848 542.311 543.3 542.18 543.658 541.92C544.01 541.66 544.41 541.178 544.859 540.475L546.715 541.51C546.428 541.998 546.126 542.418 545.807 542.77C545.488 543.115 545.146 543.401 544.781 543.629C544.417 543.85 544.023 544.013 543.6 544.117C543.176 544.221 542.717 544.273 542.223 544.273C540.803 544.273 539.664 543.818 538.805 542.906C537.945 541.988 537.516 540.771 537.516 539.254C537.516 537.75 537.932 536.533 538.766 535.602C539.605 534.684 540.719 534.225 542.105 534.225C543.505 534.225 544.612 534.671 545.426 535.562C546.233 536.448 546.637 537.675 546.637 539.244L546.627 539.762ZM544.371 537.965C544.065 536.793 543.326 536.207 542.154 536.207C541.887 536.207 541.637 536.249 541.402 536.334C541.168 536.412 540.953 536.529 540.758 536.686C540.569 536.835 540.406 537.018 540.27 537.232C540.133 537.447 540.029 537.691 539.957 537.965H544.371ZM497.584 561.488V571H495.387V561.488H497.584ZM495.055 557.533C495.055 557.149 495.195 556.817 495.475 556.537C495.755 556.257 496.09 556.117 496.48 556.117C496.878 556.117 497.216 556.257 497.496 556.537C497.776 556.811 497.916 557.146 497.916 557.543C497.916 557.94 497.776 558.279 497.496 558.559C497.223 558.839 496.887 558.979 496.49 558.979C496.093 558.979 495.755 558.839 495.475 558.559C495.195 558.279 495.055 557.937 495.055 557.533ZM500.367 561.488H502.574V562.367C503.342 561.605 504.208 561.225 505.172 561.225C506.279 561.225 507.141 561.573 507.76 562.27C508.294 562.862 508.561 563.829 508.561 565.17V571H506.354V565.688C506.354 564.75 506.223 564.102 505.963 563.744C505.709 563.38 505.247 563.197 504.576 563.197C503.847 563.197 503.329 563.438 503.023 563.92C502.724 564.395 502.574 565.225 502.574 566.41V571H500.367V561.488ZM520.514 569.232L516.236 561.488H518.785L521.695 566.957L524.41 561.488H526.891L519.312 576.176H516.803L520.514 569.232ZM527.555 566.176C527.555 564.802 528.046 563.633 529.029 562.67C530.012 561.706 531.21 561.225 532.623 561.225C534.042 561.225 535.247 561.71 536.236 562.68C537.213 563.65 537.701 564.841 537.701 566.254C537.701 567.68 537.21 568.874 536.227 569.838C535.237 570.795 534.023 571.273 532.584 571.273C531.158 571.273 529.964 570.785 529 569.809C528.036 568.845 527.555 567.634 527.555 566.176ZM529.801 566.215C529.801 567.165 530.055 567.917 530.562 568.471C531.083 569.031 531.77 569.311 532.623 569.311C533.482 569.311 534.169 569.034 534.684 568.48C535.198 567.927 535.455 567.188 535.455 566.264C535.455 565.339 535.198 564.6 534.684 564.047C534.163 563.487 533.476 563.207 532.623 563.207C531.783 563.207 531.103 563.487 530.582 564.047C530.061 564.607 529.801 565.329 529.801 566.215ZM542.232 561.488V566.947C542.232 568.523 542.854 569.311 544.098 569.311C545.341 569.311 545.963 568.523 545.963 566.947V561.488H548.16V566.996C548.16 567.758 548.066 568.415 547.877 568.969C547.695 569.464 547.379 569.91 546.93 570.307C546.188 570.951 545.243 571.273 544.098 571.273C542.958 571.273 542.018 570.951 541.275 570.307C540.82 569.91 540.497 569.464 540.309 568.969C540.126 568.526 540.035 567.868 540.035 566.996V561.488H542.232ZM553.209 563.539V571H551.002V563.539H550.221V561.488H551.002V557.816C551.002 556.618 551.21 555.772 551.627 555.277C552.2 554.587 553.033 554.242 554.127 554.242C554.518 554.242 555.009 554.356 555.602 554.584V556.83L555.377 556.713C554.902 556.472 554.511 556.352 554.205 556.352C553.814 556.352 553.551 556.492 553.414 556.771C553.277 557.045 553.209 557.572 553.209 558.354V561.488H555.602V563.539H553.209ZM562.398 563.109L560.582 564.076C560.296 563.49 559.941 563.197 559.518 563.197C559.316 563.197 559.143 563.266 559 563.402C558.857 563.533 558.785 563.702 558.785 563.91C558.785 564.275 559.208 564.636 560.055 564.994C561.22 565.495 562.005 565.958 562.408 566.381C562.812 566.804 563.014 567.374 563.014 568.09C563.014 569.008 562.675 569.776 561.998 570.395C561.34 570.98 560.546 571.273 559.615 571.273C558.02 571.273 556.891 570.495 556.227 568.939L558.102 568.07C558.362 568.526 558.561 568.816 558.697 568.939C558.964 569.187 559.283 569.311 559.654 569.311C560.396 569.311 560.768 568.972 560.768 568.295C560.768 567.904 560.481 567.54 559.908 567.201C559.687 567.09 559.465 566.983 559.244 566.879C559.023 566.775 558.798 566.667 558.57 566.557C557.932 566.244 557.483 565.932 557.223 565.619C556.891 565.222 556.725 564.711 556.725 564.086C556.725 563.259 557.008 562.576 557.574 562.035C558.154 561.495 558.857 561.225 559.684 561.225C560.901 561.225 561.806 561.853 562.398 563.109ZM573.658 566.762H566.842C566.9 567.543 567.154 568.165 567.604 568.627C568.053 569.083 568.629 569.311 569.332 569.311C569.879 569.311 570.331 569.18 570.689 568.92C571.041 568.66 571.441 568.178 571.891 567.475L573.746 568.51C573.46 568.998 573.157 569.418 572.838 569.77C572.519 570.115 572.177 570.401 571.812 570.629C571.448 570.85 571.054 571.013 570.631 571.117C570.208 571.221 569.749 571.273 569.254 571.273C567.835 571.273 566.695 570.818 565.836 569.906C564.977 568.988 564.547 567.771 564.547 566.254C564.547 564.75 564.964 563.533 565.797 562.602C566.637 561.684 567.75 561.225 569.137 561.225C570.536 561.225 571.643 561.671 572.457 562.562C573.264 563.448 573.668 564.675 573.668 566.244L573.658 566.762ZM571.402 564.965C571.096 563.793 570.357 563.207 569.186 563.207C568.919 563.207 568.668 563.249 568.434 563.334C568.199 563.412 567.984 563.529 567.789 563.686C567.6 563.835 567.438 564.018 567.301 564.232C567.164 564.447 567.06 564.691 566.988 564.965H571.402ZM578.268 554.506V571H576.07V554.506H578.268ZM583.326 563.539V571H581.119V563.539H580.338V561.488H581.119V557.816C581.119 556.618 581.327 555.772 581.744 555.277C582.317 554.587 583.15 554.242 584.244 554.242C584.635 554.242 585.126 554.356 585.719 554.584V556.83L585.494 556.713C585.019 556.472 584.628 556.352 584.322 556.352C583.932 556.352 583.668 556.492 583.531 556.771C583.395 557.045 583.326 557.572 583.326 558.354V561.488H585.719V563.539H583.326Z" fill="white"/>
<path opacity="0.5" d="M335.807 594V578.922H338.072C339.081 578.922 339.885 579 340.484 579.156C341.09 579.312 341.601 579.576 342.018 579.947C342.441 580.331 342.776 580.81 343.023 581.383C343.277 581.962 343.404 582.548 343.404 583.141C343.404 584.221 342.991 585.136 342.164 585.885C342.965 586.158 343.596 586.637 344.059 587.32C344.527 587.997 344.762 588.785 344.762 589.684C344.762 590.862 344.345 591.858 343.512 592.672C343.01 593.173 342.447 593.521 341.822 593.717C341.139 593.906 340.283 594 339.254 594H335.807ZM338.082 585.396H338.795C339.641 585.396 340.26 585.211 340.65 584.84C341.048 584.462 341.246 583.909 341.246 583.18C341.246 582.47 341.044 581.933 340.641 581.568C340.237 581.197 339.651 581.012 338.883 581.012H338.082V585.396ZM338.082 591.861H339.488C340.517 591.861 341.272 591.66 341.754 591.256C342.262 590.82 342.516 590.266 342.516 589.596C342.516 588.945 342.271 588.398 341.783 587.955C341.308 587.519 340.458 587.301 339.234 587.301H338.082V591.861ZM355.885 589.762H349.068C349.127 590.543 349.381 591.165 349.83 591.627C350.279 592.083 350.855 592.311 351.559 592.311C352.105 592.311 352.558 592.18 352.916 591.92C353.268 591.66 353.668 591.178 354.117 590.475L355.973 591.51C355.686 591.998 355.383 592.418 355.064 592.77C354.745 593.115 354.404 593.401 354.039 593.629C353.674 593.85 353.281 594.013 352.857 594.117C352.434 594.221 351.975 594.273 351.48 594.273C350.061 594.273 348.922 593.818 348.062 592.906C347.203 591.988 346.773 590.771 346.773 589.254C346.773 587.75 347.19 586.533 348.023 585.602C348.863 584.684 349.977 584.225 351.363 584.225C352.763 584.225 353.87 584.671 354.684 585.562C355.491 586.448 355.895 587.675 355.895 589.244L355.885 589.762ZM353.629 587.965C353.323 586.793 352.584 586.207 351.412 586.207C351.145 586.207 350.895 586.249 350.66 586.334C350.426 586.412 350.211 586.529 350.016 586.686C349.827 586.835 349.664 587.018 349.527 587.232C349.391 587.447 349.286 587.691 349.215 587.965H353.629ZM360.494 577.506V594H358.297V577.506H360.494ZM365.475 584.488V594H363.277V584.488H365.475ZM362.945 580.533C362.945 580.149 363.085 579.817 363.365 579.537C363.645 579.257 363.98 579.117 364.371 579.117C364.768 579.117 365.107 579.257 365.387 579.537C365.667 579.811 365.807 580.146 365.807 580.543C365.807 580.94 365.667 581.279 365.387 581.559C365.113 581.839 364.778 581.979 364.381 581.979C363.984 581.979 363.645 581.839 363.365 581.559C363.085 581.279 362.945 580.937 362.945 580.533ZM369.439 584.488L371.9 589.83L374.352 584.488H376.822L371.881 594.654L366.979 584.488H369.439ZM386.627 589.762H379.811C379.869 590.543 380.123 591.165 380.572 591.627C381.021 592.083 381.598 592.311 382.301 592.311C382.848 592.311 383.3 592.18 383.658 591.92C384.01 591.66 384.41 591.178 384.859 590.475L386.715 591.51C386.428 591.998 386.126 592.418 385.807 592.77C385.488 593.115 385.146 593.401 384.781 593.629C384.417 593.85 384.023 594.013 383.6 594.117C383.176 594.221 382.717 594.273 382.223 594.273C380.803 594.273 379.664 593.818 378.805 592.906C377.945 591.988 377.516 590.771 377.516 589.254C377.516 587.75 377.932 586.533 378.766 585.602C379.605 584.684 380.719 584.225 382.105 584.225C383.505 584.225 384.612 584.671 385.426 585.562C386.233 586.448 386.637 587.675 386.637 589.244L386.627 589.762ZM384.371 587.965C384.065 586.793 383.326 586.207 382.154 586.207C381.887 586.207 381.637 586.249 381.402 586.334C381.168 586.412 380.953 586.529 380.758 586.686C380.569 586.835 380.406 587.018 380.27 587.232C380.133 587.447 380.029 587.691 379.957 587.965H384.371ZM337.584 611.488V621H335.387V611.488H337.584ZM335.055 607.533C335.055 607.149 335.195 606.817 335.475 606.537C335.755 606.257 336.09 606.117 336.48 606.117C336.878 606.117 337.216 606.257 337.496 606.537C337.776 606.811 337.916 607.146 337.916 607.543C337.916 607.94 337.776 608.279 337.496 608.559C337.223 608.839 336.887 608.979 336.49 608.979C336.093 608.979 335.755 608.839 335.475 608.559C335.195 608.279 335.055 607.937 335.055 607.533ZM340.367 611.488H342.574V612.367C343.342 611.605 344.208 611.225 345.172 611.225C346.279 611.225 347.141 611.573 347.76 612.27C348.294 612.862 348.561 613.829 348.561 615.17V621H346.354V615.688C346.354 614.75 346.223 614.102 345.963 613.744C345.709 613.38 345.247 613.197 344.576 613.197C343.847 613.197 343.329 613.438 343.023 613.92C342.724 614.395 342.574 615.225 342.574 616.41V621H340.367V611.488ZM360.514 619.232L356.236 611.488H358.785L361.695 616.957L364.41 611.488H366.891L359.312 626.176H356.803L360.514 619.232ZM367.555 616.176C367.555 614.802 368.046 613.633 369.029 612.67C370.012 611.706 371.21 611.225 372.623 611.225C374.042 611.225 375.247 611.71 376.236 612.68C377.213 613.65 377.701 614.841 377.701 616.254C377.701 617.68 377.21 618.874 376.227 619.838C375.237 620.795 374.023 621.273 372.584 621.273C371.158 621.273 369.964 620.785 369 619.809C368.036 618.845 367.555 617.634 367.555 616.176ZM369.801 616.215C369.801 617.165 370.055 617.917 370.562 618.471C371.083 619.031 371.77 619.311 372.623 619.311C373.482 619.311 374.169 619.034 374.684 618.48C375.198 617.927 375.455 617.188 375.455 616.264C375.455 615.339 375.198 614.6 374.684 614.047C374.163 613.487 373.476 613.207 372.623 613.207C371.783 613.207 371.103 613.487 370.582 614.047C370.061 614.607 369.801 615.329 369.801 616.215ZM382.232 611.488V616.947C382.232 618.523 382.854 619.311 384.098 619.311C385.341 619.311 385.963 618.523 385.963 616.947V611.488H388.16V616.996C388.16 617.758 388.066 618.415 387.877 618.969C387.695 619.464 387.379 619.91 386.93 620.307C386.188 620.951 385.243 621.273 384.098 621.273C382.958 621.273 382.018 620.951 381.275 620.307C380.82 619.91 380.497 619.464 380.309 618.969C380.126 618.526 380.035 617.868 380.035 616.996V611.488H382.232ZM393.209 613.539V621H391.002V613.539H390.221V611.488H391.002V607.816C391.002 606.618 391.21 605.772 391.627 605.277C392.2 604.587 393.033 604.242 394.127 604.242C394.518 604.242 395.009 604.356 395.602 604.584V606.83L395.377 606.713C394.902 606.472 394.511 606.352 394.205 606.352C393.814 606.352 393.551 606.492 393.414 606.771C393.277 607.045 393.209 607.572 393.209 608.354V611.488H395.602V613.539H393.209ZM402.398 613.109L400.582 614.076C400.296 613.49 399.941 613.197 399.518 613.197C399.316 613.197 399.143 613.266 399 613.402C398.857 613.533 398.785 613.702 398.785 613.91C398.785 614.275 399.208 614.636 400.055 614.994C401.22 615.495 402.005 615.958 402.408 616.381C402.812 616.804 403.014 617.374 403.014 618.09C403.014 619.008 402.675 619.776 401.998 620.395C401.34 620.98 400.546 621.273 399.615 621.273C398.02 621.273 396.891 620.495 396.227 618.939L398.102 618.07C398.362 618.526 398.561 618.816 398.697 618.939C398.964 619.187 399.283 619.311 399.654 619.311C400.396 619.311 400.768 618.972 400.768 618.295C400.768 617.904 400.481 617.54 399.908 617.201C399.687 617.09 399.465 616.983 399.244 616.879C399.023 616.775 398.798 616.667 398.57 616.557C397.932 616.244 397.483 615.932 397.223 615.619C396.891 615.222 396.725 614.711 396.725 614.086C396.725 613.259 397.008 612.576 397.574 612.035C398.154 611.495 398.857 611.225 399.684 611.225C400.901 611.225 401.806 611.853 402.398 613.109ZM413.658 616.762H406.842C406.9 617.543 407.154 618.165 407.604 618.627C408.053 619.083 408.629 619.311 409.332 619.311C409.879 619.311 410.331 619.18 410.689 618.92C411.041 618.66 411.441 618.178 411.891 617.475L413.746 618.51C413.46 618.998 413.157 619.418 412.838 619.77C412.519 620.115 412.177 620.401 411.812 620.629C411.448 620.85 411.054 621.013 410.631 621.117C410.208 621.221 409.749 621.273 409.254 621.273C407.835 621.273 406.695 620.818 405.836 619.906C404.977 618.988 404.547 617.771 404.547 616.254C404.547 614.75 404.964 613.533 405.797 612.602C406.637 611.684 407.75 611.225 409.137 611.225C410.536 611.225 411.643 611.671 412.457 612.562C413.264 613.448 413.668 614.675 413.668 616.244L413.658 616.762ZM411.402 614.965C411.096 613.793 410.357 613.207 409.186 613.207C408.919 613.207 408.668 613.249 408.434 613.334C408.199 613.412 407.984 613.529 407.789 613.686C407.6 613.835 407.438 614.018 407.301 614.232C407.164 614.447 407.06 614.691 406.988 614.965H411.402ZM418.268 604.506V621H416.07V604.506H418.268ZM423.326 613.539V621H421.119V613.539H420.338V611.488H421.119V607.816C421.119 606.618 421.327 605.772 421.744 605.277C422.317 604.587 423.15 604.242 424.244 604.242C424.635 604.242 425.126 604.356 425.719 604.584V606.83L425.494 606.713C425.019 606.472 424.628 606.352 424.322 606.352C423.932 606.352 423.668 606.492 423.531 606.771C423.395 607.045 423.326 607.572 423.326 608.354V611.488H425.719V613.539H423.326Z" fill="white"/>
<path opacity="0.5" d="M240.807 463V447.922H243.072C244.081 447.922 244.885 448 245.484 448.156C246.09 448.312 246.601 448.576 247.018 448.947C247.441 449.331 247.776 449.81 248.023 450.383C248.277 450.962 248.404 451.548 248.404 452.141C248.404 453.221 247.991 454.136 247.164 454.885C247.965 455.158 248.596 455.637 249.059 456.32C249.527 456.997 249.762 457.785 249.762 458.684C249.762 459.862 249.345 460.858 248.512 461.672C248.01 462.173 247.447 462.521 246.822 462.717C246.139 462.906 245.283 463 244.254 463H240.807ZM243.082 454.396H243.795C244.641 454.396 245.26 454.211 245.65 453.84C246.048 453.462 246.246 452.909 246.246 452.18C246.246 451.47 246.044 450.933 245.641 450.568C245.237 450.197 244.651 450.012 243.883 450.012H243.082V454.396ZM243.082 460.861H244.488C245.517 460.861 246.272 460.66 246.754 460.256C247.262 459.82 247.516 459.266 247.516 458.596C247.516 457.945 247.271 457.398 246.783 456.955C246.308 456.519 245.458 456.301 244.234 456.301H243.082V460.861ZM260.885 458.762H254.068C254.127 459.543 254.381 460.165 254.83 460.627C255.279 461.083 255.855 461.311 256.559 461.311C257.105 461.311 257.558 461.18 257.916 460.92C258.268 460.66 258.668 460.178 259.117 459.475L260.973 460.51C260.686 460.998 260.383 461.418 260.064 461.77C259.745 462.115 259.404 462.401 259.039 462.629C258.674 462.85 258.281 463.013 257.857 463.117C257.434 463.221 256.975 463.273 256.48 463.273C255.061 463.273 253.922 462.818 253.062 461.906C252.203 460.988 251.773 459.771 251.773 458.254C251.773 456.75 252.19 455.533 253.023 454.602C253.863 453.684 254.977 453.225 256.363 453.225C257.763 453.225 258.87 453.671 259.684 454.562C260.491 455.448 260.895 456.675 260.895 458.244L260.885 458.762ZM258.629 456.965C258.323 455.793 257.584 455.207 256.412 455.207C256.145 455.207 255.895 455.249 255.66 455.334C255.426 455.412 255.211 455.529 255.016 455.686C254.827 455.835 254.664 456.018 254.527 456.232C254.391 456.447 254.286 456.691 254.215 456.965H258.629ZM265.494 446.506V463H263.297V446.506H265.494ZM270.475 453.488V463H268.277V453.488H270.475ZM267.945 449.533C267.945 449.149 268.085 448.817 268.365 448.537C268.645 448.257 268.98 448.117 269.371 448.117C269.768 448.117 270.107 448.257 270.387 448.537C270.667 448.811 270.807 449.146 270.807 449.543C270.807 449.94 270.667 450.279 270.387 450.559C270.113 450.839 269.778 450.979 269.381 450.979C268.984 450.979 268.645 450.839 268.365 450.559C268.085 450.279 267.945 449.937 267.945 449.533ZM274.439 453.488L276.9 458.83L279.352 453.488H281.822L276.881 463.654L271.979 453.488H274.439ZM291.627 458.762H284.811C284.869 459.543 285.123 460.165 285.572 460.627C286.021 461.083 286.598 461.311 287.301 461.311C287.848 461.311 288.3 461.18 288.658 460.92C289.01 460.66 289.41 460.178 289.859 459.475L291.715 460.51C291.428 460.998 291.126 461.418 290.807 461.77C290.488 462.115 290.146 462.401 289.781 462.629C289.417 462.85 289.023 463.013 288.6 463.117C288.176 463.221 287.717 463.273 287.223 463.273C285.803 463.273 284.664 462.818 283.805 461.906C282.945 460.988 282.516 459.771 282.516 458.254C282.516 456.75 282.932 455.533 283.766 454.602C284.605 453.684 285.719 453.225 287.105 453.225C288.505 453.225 289.612 453.671 290.426 454.562C291.233 455.448 291.637 456.675 291.637 458.244L291.627 458.762ZM289.371 456.965C289.065 455.793 288.326 455.207 287.154 455.207C286.887 455.207 286.637 455.249 286.402 455.334C286.168 455.412 285.953 455.529 285.758 455.686C285.569 455.835 285.406 456.018 285.27 456.232C285.133 456.447 285.029 456.691 284.957 456.965H289.371ZM242.584 480.488V490H240.387V480.488H242.584ZM240.055 476.533C240.055 476.149 240.195 475.817 240.475 475.537C240.755 475.257 241.09 475.117 241.48 475.117C241.878 475.117 242.216 475.257 242.496 475.537C242.776 475.811 242.916 476.146 242.916 476.543C242.916 476.94 242.776 477.279 242.496 477.559C242.223 477.839 241.887 477.979 241.49 477.979C241.093 477.979 240.755 477.839 240.475 477.559C240.195 477.279 240.055 476.937 240.055 476.533ZM245.367 480.488H247.574V481.367C248.342 480.605 249.208 480.225 250.172 480.225C251.279 480.225 252.141 480.573 252.76 481.27C253.294 481.862 253.561 482.829 253.561 484.17V490H251.354V484.688C251.354 483.75 251.223 483.102 250.963 482.744C250.709 482.38 250.247 482.197 249.576 482.197C248.847 482.197 248.329 482.438 248.023 482.92C247.724 483.395 247.574 484.225 247.574 485.41V490H245.367V480.488ZM265.514 488.232L261.236 480.488H263.785L266.695 485.957L269.41 480.488H271.891L264.312 495.176H261.803L265.514 488.232ZM272.555 485.176C272.555 483.802 273.046 482.633 274.029 481.67C275.012 480.706 276.21 480.225 277.623 480.225C279.042 480.225 280.247 480.71 281.236 481.68C282.213 482.65 282.701 483.841 282.701 485.254C282.701 486.68 282.21 487.874 281.227 488.838C280.237 489.795 279.023 490.273 277.584 490.273C276.158 490.273 274.964 489.785 274 488.809C273.036 487.845 272.555 486.634 272.555 485.176ZM274.801 485.215C274.801 486.165 275.055 486.917 275.562 487.471C276.083 488.031 276.77 488.311 277.623 488.311C278.482 488.311 279.169 488.034 279.684 487.48C280.198 486.927 280.455 486.188 280.455 485.264C280.455 484.339 280.198 483.6 279.684 483.047C279.163 482.487 278.476 482.207 277.623 482.207C276.783 482.207 276.103 482.487 275.582 483.047C275.061 483.607 274.801 484.329 274.801 485.215ZM287.232 480.488V485.947C287.232 487.523 287.854 488.311 289.098 488.311C290.341 488.311 290.963 487.523 290.963 485.947V480.488H293.16V485.996C293.16 486.758 293.066 487.415 292.877 487.969C292.695 488.464 292.379 488.91 291.93 489.307C291.188 489.951 290.243 490.273 289.098 490.273C287.958 490.273 287.018 489.951 286.275 489.307C285.82 488.91 285.497 488.464 285.309 487.969C285.126 487.526 285.035 486.868 285.035 485.996V480.488H287.232ZM298.209 482.539V490H296.002V482.539H295.221V480.488H296.002V476.816C296.002 475.618 296.21 474.772 296.627 474.277C297.2 473.587 298.033 473.242 299.127 473.242C299.518 473.242 300.009 473.356 300.602 473.584V475.83L300.377 475.713C299.902 475.472 299.511 475.352 299.205 475.352C298.814 475.352 298.551 475.492 298.414 475.771C298.277 476.045 298.209 476.572 298.209 477.354V480.488H300.602V482.539H298.209ZM307.398 482.109L305.582 483.076C305.296 482.49 304.941 482.197 304.518 482.197C304.316 482.197 304.143 482.266 304 482.402C303.857 482.533 303.785 482.702 303.785 482.91C303.785 483.275 304.208 483.636 305.055 483.994C306.22 484.495 307.005 484.958 307.408 485.381C307.812 485.804 308.014 486.374 308.014 487.09C308.014 488.008 307.675 488.776 306.998 489.395C306.34 489.98 305.546 490.273 304.615 490.273C303.02 490.273 301.891 489.495 301.227 487.939L303.102 487.07C303.362 487.526 303.561 487.816 303.697 487.939C303.964 488.187 304.283 488.311 304.654 488.311C305.396 488.311 305.768 487.972 305.768 487.295C305.768 486.904 305.481 486.54 304.908 486.201C304.687 486.09 304.465 485.983 304.244 485.879C304.023 485.775 303.798 485.667 303.57 485.557C302.932 485.244 302.483 484.932 302.223 484.619C301.891 484.222 301.725 483.711 301.725 483.086C301.725 482.259 302.008 481.576 302.574 481.035C303.154 480.495 303.857 480.225 304.684 480.225C305.901 480.225 306.806 480.853 307.398 482.109ZM318.658 485.762H311.842C311.9 486.543 312.154 487.165 312.604 487.627C313.053 488.083 313.629 488.311 314.332 488.311C314.879 488.311 315.331 488.18 315.689 487.92C316.041 487.66 316.441 487.178 316.891 486.475L318.746 487.51C318.46 487.998 318.157 488.418 317.838 488.77C317.519 489.115 317.177 489.401 316.812 489.629C316.448 489.85 316.054 490.013 315.631 490.117C315.208 490.221 314.749 490.273 314.254 490.273C312.835 490.273 311.695 489.818 310.836 488.906C309.977 487.988 309.547 486.771 309.547 485.254C309.547 483.75 309.964 482.533 310.797 481.602C311.637 480.684 312.75 480.225 314.137 480.225C315.536 480.225 316.643 480.671 317.457 481.562C318.264 482.448 318.668 483.675 318.668 485.244L318.658 485.762ZM316.402 483.965C316.096 482.793 315.357 482.207 314.186 482.207C313.919 482.207 313.668 482.249 313.434 482.334C313.199 482.412 312.984 482.529 312.789 482.686C312.6 482.835 312.438 483.018 312.301 483.232C312.164 483.447 312.06 483.691 311.988 483.965H316.402ZM323.268 473.506V490H321.07V473.506H323.268ZM328.326 482.539V490H326.119V482.539H325.338V480.488H326.119V476.816C326.119 475.618 326.327 474.772 326.744 474.277C327.317 473.587 328.15 473.242 329.244 473.242C329.635 473.242 330.126 473.356 330.719 473.584V475.83L330.494 475.713C330.019 475.472 329.628 475.352 329.322 475.352C328.932 475.352 328.668 475.492 328.531 475.771C328.395 476.045 328.326 476.572 328.326 477.354V480.488H330.719V482.539H328.326Z" fill="white"/>
<path opacity="0.5" d="M226.807 305V289.922H229.072C230.081 289.922 230.885 290 231.484 290.156C232.09 290.312 232.601 290.576 233.018 290.947C233.441 291.331 233.776 291.81 234.023 292.383C234.277 292.962 234.404 293.548 234.404 294.141C234.404 295.221 233.991 296.136 233.164 296.885C233.965 297.158 234.596 297.637 235.059 298.32C235.527 298.997 235.762 299.785 235.762 300.684C235.762 301.862 235.345 302.858 234.512 303.672C234.01 304.173 233.447 304.521 232.822 304.717C232.139 304.906 231.283 305 230.254 305H226.807ZM229.082 296.396H229.795C230.641 296.396 231.26 296.211 231.65 295.84C232.048 295.462 232.246 294.909 232.246 294.18C232.246 293.47 232.044 292.933 231.641 292.568C231.237 292.197 230.651 292.012 229.883 292.012H229.082V296.396ZM229.082 302.861H230.488C231.517 302.861 232.272 302.66 232.754 302.256C233.262 301.82 233.516 301.266 233.516 300.596C233.516 299.945 233.271 299.398 232.783 298.955C232.308 298.519 231.458 298.301 230.234 298.301H229.082V302.861ZM246.885 300.762H240.068C240.127 301.543 240.381 302.165 240.83 302.627C241.279 303.083 241.855 303.311 242.559 303.311C243.105 303.311 243.558 303.18 243.916 302.92C244.268 302.66 244.668 302.178 245.117 301.475L246.973 302.51C246.686 302.998 246.383 303.418 246.064 303.77C245.745 304.115 245.404 304.401 245.039 304.629C244.674 304.85 244.281 305.013 243.857 305.117C243.434 305.221 242.975 305.273 242.48 305.273C241.061 305.273 239.922 304.818 239.062 303.906C238.203 302.988 237.773 301.771 237.773 300.254C237.773 298.75 238.19 297.533 239.023 296.602C239.863 295.684 240.977 295.225 242.363 295.225C243.763 295.225 244.87 295.671 245.684 296.562C246.491 297.448 246.895 298.675 246.895 300.244L246.885 300.762ZM244.629 298.965C244.323 297.793 243.584 297.207 242.412 297.207C242.145 297.207 241.895 297.249 241.66 297.334C241.426 297.412 241.211 297.529 241.016 297.686C240.827 297.835 240.664 298.018 240.527 298.232C240.391 298.447 240.286 298.691 240.215 298.965H244.629ZM251.494 288.506V305H249.297V288.506H251.494ZM256.475 295.488V305H254.277V295.488H256.475ZM253.945 291.533C253.945 291.149 254.085 290.817 254.365 290.537C254.645 290.257 254.98 290.117 255.371 290.117C255.768 290.117 256.107 290.257 256.387 290.537C256.667 290.811 256.807 291.146 256.807 291.543C256.807 291.94 256.667 292.279 256.387 292.559C256.113 292.839 255.778 292.979 255.381 292.979C254.984 292.979 254.645 292.839 254.365 292.559C254.085 292.279 253.945 291.937 253.945 291.533ZM260.439 295.488L262.9 300.83L265.352 295.488H267.822L262.881 305.654L257.979 295.488H260.439ZM277.627 300.762H270.811C270.869 301.543 271.123 302.165 271.572 302.627C272.021 303.083 272.598 303.311 273.301 303.311C273.848 303.311 274.3 303.18 274.658 302.92C275.01 302.66 275.41 302.178 275.859 301.475L277.715 302.51C277.428 302.998 277.126 303.418 276.807 303.77C276.488 304.115 276.146 304.401 275.781 304.629C275.417 304.85 275.023 305.013 274.6 305.117C274.176 305.221 273.717 305.273 273.223 305.273C271.803 305.273 270.664 304.818 269.805 303.906C268.945 302.988 268.516 301.771 268.516 300.254C268.516 298.75 268.932 297.533 269.766 296.602C270.605 295.684 271.719 295.225 273.105 295.225C274.505 295.225 275.612 295.671 276.426 296.562C277.233 297.448 277.637 298.675 277.637 300.244L277.627 300.762ZM275.371 298.965C275.065 297.793 274.326 297.207 273.154 297.207C272.887 297.207 272.637 297.249 272.402 297.334C272.168 297.412 271.953 297.529 271.758 297.686C271.569 297.835 271.406 298.018 271.27 298.232C271.133 298.447 271.029 298.691 270.957 298.965H275.371ZM228.584 322.488V332H226.387V322.488H228.584ZM226.055 318.533C226.055 318.149 226.195 317.817 226.475 317.537C226.755 317.257 227.09 317.117 227.48 317.117C227.878 317.117 228.216 317.257 228.496 317.537C228.776 317.811 228.916 318.146 228.916 318.543C228.916 318.94 228.776 319.279 228.496 319.559C228.223 319.839 227.887 319.979 227.49 319.979C227.093 319.979 226.755 319.839 226.475 319.559C226.195 319.279 226.055 318.937 226.055 318.533ZM231.367 322.488H233.574V323.367C234.342 322.605 235.208 322.225 236.172 322.225C237.279 322.225 238.141 322.573 238.76 323.27C239.294 323.862 239.561 324.829 239.561 326.17V332H237.354V326.688C237.354 325.75 237.223 325.102 236.963 324.744C236.709 324.38 236.247 324.197 235.576 324.197C234.847 324.197 234.329 324.438 234.023 324.92C233.724 325.395 233.574 326.225 233.574 327.41V332H231.367V322.488ZM251.514 330.232L247.236 322.488H249.785L252.695 327.957L255.41 322.488H257.891L250.312 337.176H247.803L251.514 330.232ZM258.555 327.176C258.555 325.802 259.046 324.633 260.029 323.67C261.012 322.706 262.21 322.225 263.623 322.225C265.042 322.225 266.247 322.71 267.236 323.68C268.213 324.65 268.701 325.841 268.701 327.254C268.701 328.68 268.21 329.874 267.227 330.838C266.237 331.795 265.023 332.273 263.584 332.273C262.158 332.273 260.964 331.785 260 330.809C259.036 329.845 258.555 328.634 258.555 327.176ZM260.801 327.215C260.801 328.165 261.055 328.917 261.562 329.471C262.083 330.031 262.77 330.311 263.623 330.311C264.482 330.311 265.169 330.034 265.684 329.48C266.198 328.927 266.455 328.188 266.455 327.264C266.455 326.339 266.198 325.6 265.684 325.047C265.163 324.487 264.476 324.207 263.623 324.207C262.783 324.207 262.103 324.487 261.582 325.047C261.061 325.607 260.801 326.329 260.801 327.215ZM273.232 322.488V327.947C273.232 329.523 273.854 330.311 275.098 330.311C276.341 330.311 276.963 329.523 276.963 327.947V322.488H279.16V327.996C279.16 328.758 279.066 329.415 278.877 329.969C278.695 330.464 278.379 330.91 277.93 331.307C277.188 331.951 276.243 332.273 275.098 332.273C273.958 332.273 273.018 331.951 272.275 331.307C271.82 330.91 271.497 330.464 271.309 329.969C271.126 329.526 271.035 328.868 271.035 327.996V322.488H273.232ZM284.209 324.539V332H282.002V324.539H281.221V322.488H282.002V318.816C282.002 317.618 282.21 316.772 282.627 316.277C283.2 315.587 284.033 315.242 285.127 315.242C285.518 315.242 286.009 315.356 286.602 315.584V317.83L286.377 317.713C285.902 317.472 285.511 317.352 285.205 317.352C284.814 317.352 284.551 317.492 284.414 317.771C284.277 318.045 284.209 318.572 284.209 319.354V322.488H286.602V324.539H284.209ZM293.398 324.109L291.582 325.076C291.296 324.49 290.941 324.197 290.518 324.197C290.316 324.197 290.143 324.266 290 324.402C289.857 324.533 289.785 324.702 289.785 324.91C289.785 325.275 290.208 325.636 291.055 325.994C292.22 326.495 293.005 326.958 293.408 327.381C293.812 327.804 294.014 328.374 294.014 329.09C294.014 330.008 293.675 330.776 292.998 331.395C292.34 331.98 291.546 332.273 290.615 332.273C289.02 332.273 287.891 331.495 287.227 329.939L289.102 329.07C289.362 329.526 289.561 329.816 289.697 329.939C289.964 330.187 290.283 330.311 290.654 330.311C291.396 330.311 291.768 329.972 291.768 329.295C291.768 328.904 291.481 328.54 290.908 328.201C290.687 328.09 290.465 327.983 290.244 327.879C290.023 327.775 289.798 327.667 289.57 327.557C288.932 327.244 288.483 326.932 288.223 326.619C287.891 326.222 287.725 325.711 287.725 325.086C287.725 324.259 288.008 323.576 288.574 323.035C289.154 322.495 289.857 322.225 290.684 322.225C291.901 322.225 292.806 322.853 293.398 324.109ZM304.658 327.762H297.842C297.9 328.543 298.154 329.165 298.604 329.627C299.053 330.083 299.629 330.311 300.332 330.311C300.879 330.311 301.331 330.18 301.689 329.92C302.041 329.66 302.441 329.178 302.891 328.475L304.746 329.51C304.46 329.998 304.157 330.418 303.838 330.77C303.519 331.115 303.177 331.401 302.812 331.629C302.448 331.85 302.054 332.013 301.631 332.117C301.208 332.221 300.749 332.273 300.254 332.273C298.835 332.273 297.695 331.818 296.836 330.906C295.977 329.988 295.547 328.771 295.547 327.254C295.547 325.75 295.964 324.533 296.797 323.602C297.637 322.684 298.75 322.225 300.137 322.225C301.536 322.225 302.643 322.671 303.457 323.562C304.264 324.448 304.668 325.675 304.668 327.244L304.658 327.762ZM302.402 325.965C302.096 324.793 301.357 324.207 300.186 324.207C299.919 324.207 299.668 324.249 299.434 324.334C299.199 324.412 298.984 324.529 298.789 324.686C298.6 324.835 298.438 325.018 298.301 325.232C298.164 325.447 298.06 325.691 297.988 325.965H302.402ZM309.268 315.506V332H307.07V315.506H309.268ZM314.326 324.539V332H312.119V324.539H311.338V322.488H312.119V318.816C312.119 317.618 312.327 316.772 312.744 316.277C313.317 315.587 314.15 315.242 315.244 315.242C315.635 315.242 316.126 315.356 316.719 315.584V317.83L316.494 317.713C316.019 317.472 315.628 317.352 315.322 317.352C314.932 317.352 314.668 317.492 314.531 317.771C314.395 318.045 314.326 318.572 314.326 319.354V322.488H316.719V324.539H314.326Z" fill="white"/>
<defs>
<filter id="filter0_i_16_162" x="167.61" y="225.917" width="253.548" height="222.823" filterUnits="userSpaceOnUse" color-interpolation-filters="sRGB">
<feFlood flood-opacity="0" result="BackgroundImageFix"/>
<feBlend mode="normal" in="SourceGraphic" in2="BackgroundImageFix" result="shape"/>
<feColorMatrix in="SourceAlpha" type="matrix" values="0 0 0 0 0 0 0 0 0 0 0 0 0 0 0 0 0 0 127 0" result="hardAlpha"/>
<feOffset dy="4"/>
<feGaussianBlur stdDeviation="15"/>
<feComposite in2="hardAlpha" operator="arithmetic" k2="-1" k3="1"/>
<feColorMatrix type="matrix" values="0 0 0 0 1 0 0 0 0 1 0 0 0 0 1 0 0 0 0.25 0"/>
<feBlend mode="normal" in2="shape" result="effect1_innerShadow_16_162"/>
</filter>
<filter id="filter1_i_16_162" x="334.228" y="135.667" width="209.556" height="282.66" filterUnits="userSpaceOnUse" color-interpolation-filters="sRGB">
<feFlood flood-opacity="0" result="BackgroundImageFix"/>
<feBlend mode="normal" in="SourceGraphic" in2="BackgroundImageFix" result="shape"/>
<feColorMatrix in="SourceAlpha" type="matrix" values="0 0 0 0 0 0 0 0 0 0 0 0 0 0 0 0 0 0 127 0" result="hardAlpha"/>
<feOffset dy="4"/>
<feGaussianBlur stdDeviation="15"/>
<feComposite in2="hardAlpha" operator="arithmetic" k2="-1" k3="1"/>
<feColorMatrix type="matrix" values="0 0 0 0 1 0 0 0 0 1 0 0 0 0 1 0 0 0 0.25 0"/>
<feBlend mode="normal" in2="shape" result="effect1_innerShadow_16_162"/>
</filter>
<filter id="filter2_i_16_162" x="418.275" y="268.962" width="274.022" height="215.209" filterUnits="userSpaceOnUse" color-interpolation-filters="sRGB">
<feFlood flood-opacity="0" result="BackgroundImageFix"/>
<feBlend mode="normal" in="SourceGraphic" in2="BackgroundImageFix" result="shape"/>
<feColorMatrix in="SourceAlpha" type="matrix" values="0 0 0 0 0 0 0 0 0 0 0 0 0 0 0 0 0 0 127 0" result="hardAlpha"/>
<feOffset dy="4"/>
<feGaussianBlur stdDeviation="15"/>
<feComposite in2="hardAlpha" operator="arithmetic" k2="-1" k3="1"/>
<feColorMatrix type="matrix" values="0 0 0 0 1 0 0 0 0 1 0 0 0 0 1 0 0 0 0.25 0"/>
<feBlend mode="normal" in2="shape" result="effect1_innerShadow_16_162"/>
</filter>
<filter id="filter3_i_16_162" x="390.564" y="412.004" width="219.51" height="255.789" filterUnits="userSpaceOnUse" color-interpolation-filters="sRGB">
<feFlood flood-opacity="0" result="BackgroundImageFix"/>
<feBlend mode="normal" in="SourceGraphic" in2="BackgroundImageFix" result="shape"/>
<feColorMatrix in="SourceAlpha" type="matrix" values="0 0 0 0 0 0 0 0 0 0 0 0 0 0 0 0 0 0 127 0" result="hardAlpha"/>
<feOffset dy="4"/>
<feGaussianBlur stdDeviation="15"/>
<feComposite in2="hardAlpha" operator="arithmetic" k2="-1" k3="1"/>
<feColorMatrix type="matrix" values="0 0 0 0 1 0 0 0 0 1 0 0 0 0 1 0 0 0 0.25 0"/>
<feBlend mode="normal" in2="shape" result="effect1_innerShadow_16_162"/>
</filter>
<filter id="filter4_i_16_162" x="267.319" y="413.541" width="212.055" height="275.687" filterUnits="userSpaceOnUse" color-interpolation-filters="sRGB">
<feFlood flood-opacity="0" result="BackgroundImageFix"/>
<feBlend mode="normal" in="SourceGraphic" in2="BackgroundImageFix" result="shape"/>
<feColorMatrix in="SourceAlpha" type="matrix" values="0 0 0 0 0 0 0 0 0 0 0 0 0 0 0 0 0 0 127 0" result="hardAlpha"/>
<feOffset dy="4"/>
<feGaussianBlur stdDeviation="15"/>
<feComposite in2="hardAlpha" operator="arithmetic" k2="-1" k3="1"/>
<feColorMatrix type="matrix" values="0 0 0 0 1 0 0 0 0 1 0 0 0 0 1 0 0 0 0.25 0"/>
<feBlend mode="normal" in2="shape" result="effect1_innerShadow_16_162"/>
</filter>
<filter id="filter5_i_16_162" x="150.103" y="357.75" width="271.29" height="216.2" filterUnits="userSpaceOnUse" color-interpolation-filters="sRGB">
<feFlood flood-opacity="0" result="BackgroundImageFix"/>
<feBlend mode="normal" in="SourceGraphic" in2="BackgroundImageFix" result="shape"/>
<feColorMatrix in="SourceAlpha" type="matrix" values="0 0 0 0 0 0 0 0 0 0 0 0 0 0 0 0 0 0 127 0" result="hardAlpha"/>
<feOffset dy="4"/>
<feGaussianBlur stdDeviation="15"/>
<feComposite in2="hardAlpha" operator="arithmetic" k2="-1" k3="1"/>
<feColorMatrix type="matrix" values="0 0 0 0 1 0 0 0 0 1 0 0 0 0 1 0 0 0 0.25 0"/>
<feBlend mode="normal" in2="shape" result="effect1_innerShadow_16_162"/>
</filter>
<filter id="filter6_i_16_162" x="372.269" y="380.755" width="41.2466" height="39.6006" filterUnits="userSpaceOnUse" color-interpolation-filters="sRGB">
<feFlood flood-opacity="0" result="BackgroundImageFix"/>
<feBlend mode="normal" in="SourceGraphic" in2="BackgroundImageFix" result="shape"/>
<feColorMatrix in="SourceAlpha" type="matrix" values="0 0 0 0 0 0 0 0 0 0 0 0 0 0 0 0 0 0 127 0" result="hardAlpha"/>
<feOffset dy="4"/>
<feGaussianBlur stdDeviation="2.5"/>
<feComposite in2="hardAlpha" operator="arithmetic" k2="-1" k3="1"/>
<feColorMatrix type="matrix" values="0 0 0 0 1 0 0 0 0 1 0 0 0 0 1 0 0 0 0.25 0"/>
<feBlend mode="normal" in2="shape" result="effect1_innerShadow_16_162"/>
</filter>
<filter id="filter7_i_16_162" x="399.376" y="366.072" width="34.0929" height="49.3092" filterUnits="userSpaceOnUse" color-interpolation-filters="sRGB">
<feFlood flood-opacity="0" result="BackgroundImageFix"/>
<feBlend mode="normal" in="SourceGraphic" in2="BackgroundImageFix" result="shape"/>
<feColorMatrix in="SourceAlpha" type="matrix" values="0 0 0 0 0 0 0 0 0 0 0 0 0 0 0 0 0 0 127 0" result="hardAlpha"/>
<feOffset dy="4"/>
<feGaussianBlur stdDeviation="2.5"/>
<feComposite in2="hardAlpha" operator="arithmetic" k2="-1" k3="1"/>
<feColorMatrix type="matrix" values="0 0 0 0 1 0 0 0 0 1 0 0 0 0 1 0 0 0 0.25 0"/>
<feBlend mode="normal" in2="shape" result="effect1_innerShadow_16_162"/>
</filter>
<filter id="filter8_i_16_162" x="413.071" y="387.758" width="44.5596" height="38.3618" filterUnits="userSpaceOnUse" color-interpolation-filters="sRGB">
<feFlood flood-opacity="0" result="BackgroundImageFix"/>
<feBlend mode="normal" in="SourceGraphic" in2="BackgroundImageFix" result="shape"/>
<feColorMatrix in="SourceAlpha" type="matrix" values="0 0 0 0 0 0 0 0 0 0 0 0 0 0 0 0 0 0 127 0" result="hardAlpha"/>
<feOffset dy="4"/>
<feGaussianBlur stdDeviation="2.5"/>
<feComposite in2="hardAlpha" operator="arithmetic" k2="-1" k3="1"/>
<feColorMatrix type="matrix" values="0 0 0 0 1 0 0 0 0 1 0 0 0 0 1 0 0 0 0.25 0"/>
<feBlend mode="normal" in2="shape" result="effect1_innerShadow_16_162"/>
</filter>
<filter id="filter9_i_16_162" x="408.542" y="411.031" width="35.7124" height="44.9622" filterUnits="userSpaceOnUse" color-interpolation-filters="sRGB">
<feFlood flood-opacity="0" result="BackgroundImageFix"/>
<feBlend mode="normal" in="SourceGraphic" in2="BackgroundImageFix" result="shape"/>
<feColorMatrix in="SourceAlpha" type="matrix" values="0 0 0 0 0 0 0 0 0 0 0 0 0 0 0 0 0 0 127 0" result="hardAlpha"/>
<feOffset dy="4"/>
<feGaussianBlur stdDeviation="2.5"/>
<feComposite in2="hardAlpha" operator="arithmetic" k2="-1" k3="1"/>
<feColorMatrix type="matrix" values="0 0 0 0 1 0 0 0 0 1 0 0 0 0 1 0 0 0 0.25 0"/>
<feBlend mode="normal" in2="shape" result="effect1_innerShadow_16_162"/>
</filter>
<filter id="filter10_i_16_162" x="388.491" y="411.299" width="34.4996" height="48.1816" filterUnits="userSpaceOnUse" color-interpolation-filters="sRGB">
<feFlood flood-opacity="0" result="BackgroundImageFix"/>
<feBlend mode="normal" in="SourceGraphic" in2="BackgroundImageFix" result="shape"/>
<feColorMatrix in="SourceAlpha" type="matrix" values="0 0 0 0 0 0 0 0 0 0 0 0 0 0 0 0 0 0 127 0" result="hardAlpha"/>
<feOffset dy="4"/>
<feGaussianBlur stdDeviation="2.5"/>
<feComposite in2="hardAlpha" operator="arithmetic" k2="-1" k3="1"/>
<feColorMatrix type="matrix" values="0 0 0 0 1 0 0 0 0 1 0 0 0 0 1 0 0 0 0.25 0"/>
<feBlend mode="normal" in2="shape" result="effect1_innerShadow_16_162"/>
</filter>
<filter id="filter11_i_16_162" x="369.421" y="402.203" width="44.1174" height="38.523" filterUnits="userSpaceOnUse" color-interpolation-filters="sRGB">
<feFlood flood-opacity="0" result="BackgroundImageFix"/>
<feBlend mode="normal" in="SourceGraphic" in2="BackgroundImageFix" result="shape"/>
<feColorMatrix in="SourceAlpha" type="matrix" values="0 0 0 0 0 0 0 0 0 0 0 0 0 0 0 0 0 0 127 0" result="hardAlpha"/>
<feOffset dy="4"/>
<feGaussianBlur stdDeviation="2.5"/>
<feComposite in2="hardAlpha" operator="arithmetic" k2="-1" k3="1"/>
<feColorMatrix type="matrix" values="0 0 0 0 1 0 0 0 0 1 0 0 0 0 1 0 0 0 0.25 0"/>
<feBlend mode="normal" in2="shape" result="effect1_innerShadow_16_162"/>
</filter>
</defs>
</svg>
